<svg xmlns="http://www.w3.org/2000/svg" width="100.117" height="100" viewBox="0 0 100.117 100">
  <g id="Group_21" data-name="Group 21" transform="translate(1379 -2512)">
    <g id="inspection" transform="translate(-1379 2512)">
      <path id="Path_25" data-name="Path 25" d="M31.639,6.5l4.546,11.365H18L22.547,6.5Z" transform="translate(22.912 -4.235)" fill="#ccd1d9"/>
      <path id="Path_26" data-name="Path 26" d="M58.1,6.5l9.092,11.365H28.547L24,6.5Z" transform="translate(30.55 -4.235)" fill="#f6bb42"/>
      <path id="Path_27" data-name="Path 27" d="M44.187,6.5,39.641,17.866H1L10.093,6.5Z" transform="translate(1.272 -4.235)" fill="#f6bb42"/>
      <path id="Path_28" data-name="Path 28" d="M36.185,11.5V27.412l-9.092-4.569L18,27.412V11.5Z" transform="translate(22.912 2.129)" fill="#e6e9ed"/>
      <path id="Path_29" data-name="Path 29" d="M96.465,45.368v.2c-.116,20.681.838,25.211,0,50.028H1V11.5h38.64V27.412l9.092-4.569,9.092,4.569V11.5h38.64Z" transform="translate(1.272 2.129)" fill="#ffce54"/>
      <path id="Path_30" data-name="Path 30" d="M97.758,99.14H2.274A2.271,2.271,0,0,1,0,96.867V12.777A2.271,2.271,0,0,1,2.274,10.5H97.74a2.271,2.271,0,0,1,2.273,2.273l.018,84.09a2.273,2.273,0,1,1-4.546,0L95.467,15.05H4.547V94.594H97.758a2.273,2.273,0,0,1,0,4.546Z" transform="translate(-0.001 0.86)"/>
      <path id="Path_39" data-name="Path 39" d="M2.272,21.413A2.273,2.273,0,0,1,.5,17.722L9.577,6.359A2.272,2.272,0,0,1,13.127,9.2L4.049,20.558a2.268,2.268,0,0,1-1.777.855Z" transform="translate(-0.001 -5.503)"/>
      <path id="Path_40" data-name="Path 40" d="M49.371,21.414a2.261,2.261,0,0,1-1.775-.852L38.5,9.2a2.272,2.272,0,1,1,3.546-2.841l9.1,11.362a2.271,2.271,0,0,1-.352,3.193A2.248,2.248,0,0,1,49.371,21.414Z" transform="translate(48.37 -5.504)"/>
      <path id="Path_41" data-name="Path 41" d="M83.559,10.051H6.268a2.273,2.273,0,1,1,0-4.546H83.559a2.273,2.273,0,1,1,0,4.546Z" transform="translate(5.083 -5.503)"/>
      <path id="Path_44" data-name="Path 44" d="M19.276,21.414a2.241,2.241,0,0,1-.843-.161A2.274,2.274,0,0,1,17.164,18.3L21.71,6.936a2.274,2.274,0,1,1,4.223,1.687L21.387,19.985a2.275,2.275,0,0,1-2.112,1.43Z" transform="translate(21.64 -5.504)"/>
      <path id="Path_45" data-name="Path 45" d="M29.82,21.414a2.275,2.275,0,0,1-2.112-1.43L23.162,8.622a2.274,2.274,0,0,1,4.223-1.687L31.931,18.3a2.272,2.272,0,0,1-2.112,3.116Z" transform="translate(29.275 -5.504)"/>
      <path id="Path_46" data-name="Path 46" d="M19.275,30.94A2.271,2.271,0,0,1,17,28.667V12.777a2.273,2.273,0,1,1,4.546,0v15.89A2.271,2.271,0,0,1,19.275,30.94Z" transform="translate(21.641 0.86)"/>
      <path id="Path_47" data-name="Path 47" d="M27.273,30.94A2.271,2.271,0,0,1,25,28.667V12.777a2.273,2.273,0,1,1,4.546,0v15.89A2.271,2.271,0,0,1,27.273,30.94Z" transform="translate(31.821 0.86)"/>
      <path id="Path_48" data-name="Path 48" d="M19.278,24.588a2.274,2.274,0,0,1-1.021-4.307l9.083-4.548A2.273,2.273,0,1,1,29.375,19.8l-9.083,4.548a2.252,2.252,0,0,1-1.014.241Z" transform="translate(21.639 7.212)"/>
      <path id="Path_49" data-name="Path 49" d="M32.365,24.587a2.279,2.279,0,0,1-1.014-.239l-9.1-4.548a2.273,2.273,0,1,1,2.034-4.066l9.1,4.548a2.272,2.272,0,0,1-1.021,4.3Z" transform="translate(26.727 7.214)"/>
      <path id="Path_50" data-name="Path 50" d="M24.458,48.04H6.268a2.273,2.273,0,0,1,0-4.546h18.19a2.273,2.273,0,0,1,0,4.546Z" transform="translate(5.083 42.855)"/>
      <path id="Path_51" data-name="Path 51" d="M42.646,45.041H6.268a2.273,2.273,0,1,1,0-4.546H42.646a2.273,2.273,0,1,1,0,4.546Z" transform="translate(5.083 39.037)"/>
    </g>
    <g id="Group_18" data-name="Group 18" transform="translate(-1353.89 2536.88)">
      <path id="Path_66" data-name="Path 66" d="M80.033,37.21a26.395,26.395,0,1,1-37.313,0,26.381,26.381,0,0,1,37.313,0Z" transform="translate(-34.11 -28.606)" fill="#fff"/>
      <path id="Path_52" data-name="Path 52" d="M55.649,43.721l9,9.026-6.407,6.43-9-9a26.593,26.593,0,0,0,3.5-2.932A23.842,23.842,0,0,0,55.649,43.721Z" transform="translate(-7.774 -2.285)" fill="#ccd1d9"/>
      <path id="Path_53" data-name="Path 53" d="M62.128,46.981,74.379,59.232a6.823,6.823,0,0,1-9.637,9.66L52.491,56.618,54.1,55.027l6.407-6.43Z" transform="translate(-3.639 1.865)" fill="#656d78"/>
      <path id="Path_54" data-name="Path 54" d="M69.852,64.358a18.186,18.186,0,1,0-25.709,0A18.177,18.177,0,0,0,69.852,64.358ZM74.693,33.81A24.994,24.994,0,0,1,77.6,65.654a23.7,23.7,0,0,1-2.907,3.523,26.593,26.593,0,0,1-3.5,2.932,24.929,24.929,0,0,1-14.16,4.41H57.01A25.014,25.014,0,1,1,74.693,33.81Z" transform="translate(-29.728 -24.218)" fill="#fff"/>
      <path id="Path_55" data-name="Path 55" d="M66.028,34.81a18.186,18.186,0,1,1-25.709,0,18.177,18.177,0,0,1,25.709,0Z" transform="translate(-25.904 -20.399)" fill="#00dd80"/>
      <path id="Path_56" data-name="Path 56" d="M58.273,80.042a27.277,27.277,0,1,1,19.284-7.989A27.09,27.09,0,0,1,58.273,80.042Zm0-50a22.73,22.73,0,1,0,16.07,6.657A22.576,22.576,0,0,0,58.273,30.037Z" transform="translate(-30.998 -25.491)"/>
      <path id="Path_57" data-name="Path 57" d="M54.45,69.405a20.458,20.458,0,1,1,14.463-5.991A20.322,20.322,0,0,1,54.45,69.405Zm0-36.367A15.911,15.911,0,1,0,65.7,37.7,15.816,15.816,0,0,0,54.45,33.038Z" transform="translate(-27.175 -21.673)"/>
      <path id="Path_58" data-name="Path 58" d="M59.513,59.107a2.267,2.267,0,0,1-1.607-.666L48.9,49.435a2.273,2.273,0,0,1,3.214-3.214l9.005,9.005a2.273,2.273,0,0,1-1.607,3.88Z" transform="translate(-9.058 0.049)"/>
      <path id="Path_59" data-name="Path 59" d="M62.356,56.3a2.267,2.267,0,0,1-1.607-.666l-9.037-9.037a2.273,2.273,0,1,1,3.214-3.214l9.037,9.037a2.273,2.273,0,0,1-1.607,3.88Z" transform="translate(-5.478 -3.569)"/>
      <path id="Path_60" data-name="Path 60" d="M63.973,67.556A9.058,9.058,0,0,1,57.545,64.9a2.273,2.273,0,0,1,3.214-3.214,4.546,4.546,0,1,0,6.428-6.43A2.273,2.273,0,0,1,70.4,52.038a9.088,9.088,0,0,1-6.428,15.517Z" transform="translate(1.947 7.454)"/>
      <path id="Path_61" data-name="Path 61" d="M66.015,67.024a2.267,2.267,0,0,1-1.607-.666L52.154,54.1a2.273,2.273,0,0,1,3.214-3.214L67.622,63.144a2.273,2.273,0,0,1-1.607,3.88Z" transform="translate(-4.916 5.992)"/>
      <path id="Path_62" data-name="Path 62" d="M70.257,62.781a2.267,2.267,0,0,1-1.607-.666L56.4,49.861a2.273,2.273,0,0,1,3.214-3.214L71.864,58.9a2.273,2.273,0,0,1-1.607,3.88Z" transform="translate(0.484 0.591)"/>
      <path id="Path_63" data-name="Path 63" d="M53.761,60.172a2.273,2.273,0,0,1-1.607-3.88L61.8,46.648a2.273,2.273,0,0,1,3.214,3.214l-9.642,9.644A2.267,2.267,0,0,1,53.761,60.172Z" transform="translate(-4.916 0.593)"/>
      <path id="Path_64" data-name="Path 64" d="M45.818,46.585a2.267,2.267,0,0,1-1.607-.666l-4.544-4.544a2.273,2.273,0,0,1,3.214-3.214L47.425,42.7a2.273,2.273,0,0,1-1.607,3.88Z" transform="translate(-20.811 -10.211)"/>
      <path id="Path_65" data-name="Path 65" d="M43.273,50.4a2.273,2.273,0,0,1-1.607-3.88L53.031,35.16a2.273,2.273,0,0,1,3.214,3.214L44.88,49.739A2.267,2.267,0,0,1,43.273,50.4Z" transform="translate(-18.266 -14.031)"/>
    </g>
  </g>
</svg>
