<svg xmlns="http://www.w3.org/2000/svg" width="383.205" height="160" viewBox="0 0 383.205 160">
  <g id="Group_68" data-name="Group 68" transform="translate(-158.373 -4766)">
    <g id="Group_60" data-name="Group 60" transform="translate(329.529 4828.111)">
      <path id="Path_214" data-name="Path 214" d="M223.9,594.045h3.133l-1.58-4.355Z" transform="translate(-85.591 -584.01)" fill="none"/>
      <path id="Path_215" data-name="Path 215" d="M287.067,616.579a1.263,1.263,0,0,0,.342-.9,1.088,1.088,0,0,0-.41-.925,1.425,1.425,0,0,0-.909-.252H284.15v2.48h1.874A1.355,1.355,0,0,0,287.067,616.579Z" transform="translate(-89.987 -585.82)" fill="none"/>
      <path id="Path_216" data-name="Path 216" d="M119.314,587.739a5.794,5.794,0,1,0,5.782,5.782A5.8,5.8,0,0,0,119.314,587.739Z" transform="translate(-77.537 -583.867)" fill="none"/>
      <path id="Path_217" data-name="Path 217" d="M203.039,615.849a1.424,1.424,0,0,0-.33-.679,1.476,1.476,0,0,0-.5-.421,1.825,1.825,0,0,0-.768-.174,1.732,1.732,0,0,0-.752.174,1.573,1.573,0,0,0-.517.421,1.357,1.357,0,0,0-.32.679,9.861,9.861,0,0,0-.089,1.645,9.625,9.625,0,0,0,.089,1.632,1.369,1.369,0,0,0,.32.69,1.684,1.684,0,0,0,1.269.594,1.525,1.525,0,0,0,.768-.185,1.361,1.361,0,0,0,.5-.41,1.435,1.435,0,0,0,.33-.69,10.11,10.11,0,0,0,.084-1.632A10.358,10.358,0,0,0,203.039,615.849Z" transform="translate(-83.83 -585.825)" fill="none"/>
      <path id="Path_218" data-name="Path 218" d="M195.764,589.676a1.935,1.935,0,0,0-1.936-1.937h-1.554v3.846h1.554A1.93,1.93,0,0,0,195.764,589.676Z" transform="translate(-83.284 -583.867)" fill="none"/>
      <path id="Path_219" data-name="Path 219" d="M91.086,615.119,89.9,618.694h2.39l-1.184-3.575Z" transform="translate(-75.814 -585.865)" fill="none"/>
      <path id="Path_220" data-name="Path 220" d="M84.394,602.869a9.594,9.594,0,0,0,6.647-2.674l-2.725-2.725a5.791,5.791,0,1,1-3.922-10.036,5.7,5.7,0,0,1,3.922,1.555l2.725-2.751a9.647,9.647,0,1,0-6.647,16.632Z" transform="translate(-74.708 -583.563)" fill="#f60"/>
      <path id="Path_221" data-name="Path 221" d="M128.665,593.216a9.654,9.654,0,1,0-9.654,9.653A9.665,9.665,0,0,0,128.665,593.216Zm-9.654,5.807a5.794,5.794,0,1,1,5.782-5.807A5.8,5.8,0,0,1,119.011,599.023Z" transform="translate(-77.234 -583.563)" fill="#f60"/>
      <path id="Path_222" data-name="Path 222" d="M168.178,602.869V583.563h-4.152L158.4,597.674l-5.655-14.112h-4.152v19.307h3.846v-9.653l3.872,9.653h4.152l3.871-9.653v9.653Z" transform="translate(-80.096 -583.563)" fill="#f60"/>
      <path id="Path_223" data-name="Path 223" d="M191.972,595.153h1.58a5.795,5.795,0,0,0-.026-11.59h-5.4v19.306h3.846Zm0-7.719h1.554a1.923,1.923,0,1,1,0,3.846h-1.554Z" transform="translate(-82.981 -583.563)" fill="#f60"/>
      <path id="Path_224" data-name="Path 224" d="M226.927,583.563h-4.1l-6.979,19.306h4.1l1.961-5.4h5.935l1.962,5.4h4.1ZM223.311,593.6l1.553-4.355,1.58,4.355Z" transform="translate(-85.004 -583.563)" fill="#f60"/>
      <path id="Path_225" data-name="Path 225" d="M269.257,602.869V583.563h-3.846v12.889l-7.718-12.889h-4.508v19.307h3.846V590.006l7.743,12.863Z" transform="translate(-87.728 -583.563)" fill="#f60"/>
      <path id="Path_226" data-name="Path 226" d="M292.684,583.563h-4.3l5.044,10.112v9.194h3.846v-9.194l5.043-10.112h-4.3l-2.649,5.349Z" transform="translate(-90.296 -583.563)" fill="#f60"/>
      <path id="Path_227" data-name="Path 227" d="M76.944,621.491H78.19v-7.075h2.239v-1.105H74.706v1.105h2.239Z" transform="translate(-74.706 -585.733)" fill="#f60"/>
      <path id="Path_228" data-name="Path 228" d="M90.395,613.311l-2.974,8.18h1.313l.629-1.829h3.1l.635,1.829h1.307l-2.974-8.18Zm-.674,5.252,1.184-3.576h.023l1.184,3.576Z" transform="translate(-75.633 -585.733)" fill="#f60"/>
      <path id="Path_229" data-name="Path 229" d="M104.465,615.073a1.583,1.583,0,0,1,.517-.421,1.738,1.738,0,0,1,.752-.174,1.618,1.618,0,0,1,1.01.343,1.791,1.791,0,0,1,.55.841h1.314a3.083,3.083,0,0,0-.943-1.722,2.776,2.776,0,0,0-1.93-.7,2.9,2.9,0,0,0-2.564,1.471,2.263,2.263,0,0,0-.275.78,21.727,21.727,0,0,0,0,3.8,2.306,2.306,0,0,0,.113.437c.048.112.1.23.162.353a2.735,2.735,0,0,0,.954,1,2.912,2.912,0,0,0,4.528-2.435V616.98h-2.906v1.173h1.667v.426a1.723,1.723,0,0,1-.482,1.24,1.588,1.588,0,0,1-1.2.492,1.684,1.684,0,0,1-1.269-.594,1.368,1.368,0,0,1-.319-.69,9.592,9.592,0,0,1-.09-1.632,9.828,9.828,0,0,1,.09-1.645A1.356,1.356,0,0,1,104.465,615.073Z" transform="translate(-76.756 -585.728)" fill="#f60"/>
      <path id="Path_230" data-name="Path 230" d="M118.11,613.311v8.18h5.223v-1.173H119.35v-7.007Z" transform="translate(-77.872 -585.733)" fill="#f60"/>
      <rect id="Rectangle_56" data-name="Rectangle 56" width="1.24" height="8.18" transform="translate(53.523 27.578)" fill="#f60"/>
      <path id="Path_231" data-name="Path 231" d="M147.966,619.124h-.022l-3.7-5.813h-1.167v8.18h1.24v-5.812h.023l3.7,5.812h1.173v-8.18h-1.24Z" transform="translate(-79.694 -585.733)" fill="#f60"/>
      <path id="Path_232" data-name="Path 232" d="M164.214,614.483v-1.172H158.99v8.18h5.224v-1.173H160.23v-2.4h3.4v-1.1h-3.4v-2.335Z" transform="translate(-80.855 -585.733)" fill="#f60"/>
      <path id="Path_233" data-name="Path 233" d="M184.74,613.7a2.832,2.832,0,0,0-.953,1.01,2.245,2.245,0,0,0-.274.78,21.488,21.488,0,0,0,0,3.8,2.244,2.244,0,0,0,.112.437c.048.112.1.23.162.353a2.74,2.74,0,0,0,.953,1,2.913,2.913,0,0,0,4.529-2.435V616.98h-2.906v1.173h1.667v.426a1.723,1.723,0,0,1-.482,1.24,1.586,1.586,0,0,1-1.2.492,1.679,1.679,0,0,1-1.268-.594,1.369,1.369,0,0,1-.32-.69,9.494,9.494,0,0,1-.09-1.632,9.726,9.726,0,0,1,.09-1.645,1.357,1.357,0,0,1,.32-.679,1.579,1.579,0,0,1,.516-.421,1.738,1.738,0,0,1,.752-.174,1.623,1.623,0,0,1,1.01.343,1.8,1.8,0,0,1,.549.841h1.313a3.082,3.082,0,0,0-.942-1.722,2.774,2.774,0,0,0-1.93-.7A2.83,2.83,0,0,0,184.74,613.7Z" transform="translate(-82.638 -585.728)" fill="#f60"/>
      <path id="Path_234" data-name="Path 234" d="M203.906,620.082a1.883,1.883,0,0,0,.286-.79,24.735,24.735,0,0,0,0-3.8,1.87,1.87,0,0,0-.286-.78,2.742,2.742,0,0,0-.931-1.01,2.874,2.874,0,0,0-1.627-.461,2.894,2.894,0,0,0-2.564,1.471,2.244,2.244,0,0,0-.275.78,21.488,21.488,0,0,0,0,3.8,2.244,2.244,0,0,0,.112.437c.049.112.1.23.163.353a2.732,2.732,0,0,0,.953,1,2.874,2.874,0,0,0,1.611.471,2.921,2.921,0,0,0,1.627-.471A2.653,2.653,0,0,0,203.906,620.082Zm-1.3-.364a1.361,1.361,0,0,1-.5.41,1.525,1.525,0,0,1-.768.185,1.684,1.684,0,0,1-1.269-.594,1.369,1.369,0,0,1-.32-.69,9.625,9.625,0,0,1-.089-1.632,9.861,9.861,0,0,1,.089-1.645,1.357,1.357,0,0,1,.32-.679,1.573,1.573,0,0,1,.517-.421,1.732,1.732,0,0,1,.752-.174,1.825,1.825,0,0,1,.768.174,1.476,1.476,0,0,1,.5.421,1.424,1.424,0,0,1,.33.679,10.358,10.358,0,0,1,.084,1.645,10.11,10.11,0,0,1-.084,1.632A1.435,1.435,0,0,1,202.611,619.718Z" transform="translate(-83.732 -585.728)" fill="#f60"/>
      <path id="Path_235" data-name="Path 235" d="M218.947,614.483v-1.172h-5.223v8.18h5.223v-1.173h-3.983v-2.4h3.4v-1.1h-3.4v-2.335Z" transform="translate(-84.849 -585.733)" fill="#f60"/>
      <path id="Path_236" data-name="Path 236" d="M230.422,620.312a3.592,3.592,0,0,1-2.323-.813l-.813.932a4.634,4.634,0,0,0,3.125,1.122q2.81-.032,2.873-2.378a2.321,2.321,0,0,0-.544-1.528,2.557,2.557,0,0,0-1.7-.824q-.584-.072-.921-.128a1.589,1.589,0,0,1-.881-.4.9.9,0,0,1-.275-.641,1.063,1.063,0,0,1,.41-.885,1.541,1.541,0,0,1,.954-.287,3.756,3.756,0,0,1,2.026.629l.691-1.022a4.6,4.6,0,0,0-2.654-.848,2.79,2.79,0,0,0-1.958.662,2.24,2.24,0,0,0-.713,1.729,2.175,2.175,0,0,0,.566,1.516,2.675,2.675,0,0,0,1.6.779q.59.085,1.083.152,1.078.185,1.066,1.1Q232.016,620.29,230.422,620.312Z" transform="translate(-85.838 -585.728)" fill="#f60"/>
      <path id="Path_237" data-name="Path 237" d="M258.729,621.491v-8.18H257.49v3.507h-3.238v-3.507h-1.24v8.18h1.24v-3.574h3.238v3.574Z" transform="translate(-87.715 -585.733)" fill="#f60"/>
      <path id="Path_238" data-name="Path 238" d="M273.7,614.483v-1.172h-5.223v8.18H273.7v-1.173h-3.983v-2.4h3.4v-1.1h-3.4v-2.335Z" transform="translate(-88.844 -585.733)" fill="#f60"/>
      <path id="Path_239" data-name="Path 239" d="M284.052,618h1.582l1.689,3.5H288.8l-1.9-3.63a2.276,2.276,0,0,0,1.581-2.268,2.173,2.173,0,0,0-.813-1.744,2.509,2.509,0,0,0-1.666-.539h-3.193v8.18h1.24Zm0-3.579h1.941a1.425,1.425,0,0,1,.909.252,1.088,1.088,0,0,1,.41.925,1.263,1.263,0,0,1-.342.9,1.355,1.355,0,0,1-1.044.4h-1.874Z" transform="translate(-89.89 -585.733)" fill="#f60"/>
      <path id="Path_240" data-name="Path 240" d="M303.032,614.483v-1.172h-5.223v8.18h5.223v-1.173h-3.983v-2.4h3.4v-1.1h-3.4v-2.335Z" transform="translate(-90.984 -585.733)" fill="#f60"/>
    </g>
    <g id="Group_59" data-name="Group 59" transform="translate(158.373 4766)">
      <path id="Path_241" data-name="Path 241" d="M243.37,402.266l.021.017-.022-.019c-.132-.112-.269-.22-.4-.324l0,0h0C243.1,402.046,243.237,402.154,243.37,402.266Z" transform="translate(-113.005 -384.422)" fill="#fffbf8"/>
      <path id="Path_242" data-name="Path 242" d="M241.43,400.738l.013.008.009.008c.451.344.9.7,1.334,1.046l.008,0-.007,0c-.434-.349-.883-.7-1.335-1.046l-.011-.009-.012-.009c-.119-.093-.242-.185-.364-.278l-.148-.112.146.112C241.19,400.553,241.309,400.643,241.43,400.738Z" transform="translate(-112.856 -384.305)" fill="#fffbf8"/>
      <path id="Path_243" data-name="Path 243" d="M240.752,400.221l-.021-.015.013.008-.018-.012.006,0Z" transform="translate(-112.842 -384.295)" fill="#fffbf8"/>
      <path id="Path_244" data-name="Path 244" d="M240.674,400.163l-.021-.015-.254-.188.253.189Z" transform="translate(-112.818 -384.277)" fill="#fffbf8"/>
      <path id="Path_245" data-name="Path 245" d="M239.588,399.368c.067.045.131.094.2.14l-.195-.14-.142-.1h0l0,0Z" transform="translate(-112.749 -384.227)" fill="#fffbf8"/>
      <path id="Path_246" data-name="Path 246" d="M239.4,399.231l-.009-.006c-.135-.1-.271-.195-.408-.29.136.1.272.191.407.292Z" transform="translate(-112.715 -384.202)" fill="#fffbf8"/>
      <path id="Path_247" data-name="Path 247" d="M237.672,398.019l-.012-.007c-.15-.1-.3-.206-.452-.308.152.1.3.2.451.31Z" transform="translate(-112.585 -384.113)" fill="#fffbf8"/>
      <path id="Path_248" data-name="Path 248" d="M203.16,384.191h0c-.323-.056-.643-.107-.965-.155l-.449-.067.447.068C202.519,384.084,202.842,384.135,203.16,384.191Z" transform="translate(-109.998 -383.111)" fill="#fffbf8"/>
      <path id="Path_249" data-name="Path 249" d="M236.339,397.129l-.036-.024h0Z" transform="translate(-112.519 -384.069)" fill="#fffbf8"/>
      <path id="Path_250" data-name="Path 250" d="M225.446,391.065l.011,0-.008,0c-.813-.381-1.557-.715-2.274-1.021l-.02-.007.019.009C223.891,390.351,224.636,390.682,225.446,391.065Z" transform="translate(-111.56 -383.553)" fill="#fffbf8"/>
      <path id="Path_251" data-name="Path 251" d="M235.576,396.634c.162.1.324.21.488.316-.162-.107-.324-.213-.487-.316l-.026-.017h0Z" transform="translate(-112.464 -384.033)" fill="#fffbf8"/>
      <path id="Path_252" data-name="Path 252" d="M215.142,387.052c-.193-.063-.387-.125-.581-.184s-.4-.121-.6-.182c.2.061.4.121.6.184S214.947,386.989,215.142,387.052Z" transform="translate(-110.889 -383.309)" fill="#fffbf8"/>
      <path id="Path_253" data-name="Path 253" d="M211.945,386.108l-.264-.072-.054-.015.055.016Z" transform="translate(-110.719 -383.26)" fill="#fffbf8"/>
      <path id="Path_254" data-name="Path 254" d="M212.182,386.174l-.005,0-.011,0,.011,0Z" transform="translate(-110.758 -383.271)" fill="#fffbf8"/>
      <path id="Path_255" data-name="Path 255" d="M222.454,389.738l.073.03c.177.073.349.146.521.224l.019.006-.018-.007c-.172-.078-.345-.152-.521-.224l-.074-.03-.05-.023-.011,0,.009.006Z" transform="translate(-111.504 -383.529)" fill="#fffbf8"/>
      <path id="Path_256" data-name="Path 256" d="M232.927,395l0,0h0Z" transform="translate(-112.273 -383.915)" fill="#fffbf8"/>
      <path id="Path_257" data-name="Path 257" d="M233.385,395.275l.4.246c.258.15.512.31.762.469l.034.021,0,0-.007,0-.031-.02c-.25-.16-.507-.317-.763-.471l-.405-.245-.006,0-.185-.109.186.11Z" transform="translate(-112.293 -383.927)" fill="#fffbf8"/>
      <path id="Path_258" data-name="Path 258" d="M244.026,402.8l.065.053-.066-.055c-.183-.153-.362-.3-.54-.442l-.028-.022.027.023C243.664,402.5,243.841,402.647,244.026,402.8Z" transform="translate(-113.041 -384.451)" fill="#fffbf8"/>
      <path id="Path_259" data-name="Path 259" d="M232.139,394.545q.277.159.551.318c-.183-.108-.366-.214-.549-.32l-.139-.081c-.065-.037-.127-.071-.19-.108l.189.108Z" transform="translate(-112.192 -383.868)" fill="#fffbf8"/>
      <path id="Path_260" data-name="Path 260" d="M225.77,391.213l.684.327c.262.121.52.246.775.379l.026.013.008,0-.01-.006-.025-.012c-.256-.13-.514-.255-.774-.38l-.684-.326,0,0-.061-.028c.02.009.042.018.059.028Z" transform="translate(-111.746 -383.637)" fill="#fffbf8"/>
      <path id="Path_261" data-name="Path 261" d="M219.359,388.506c.581.215,1.213.465,1.984.775.053.02.1.042.155.063l-.156-.064c-.771-.311-1.4-.557-1.983-.774l-.349-.129-.048-.018.047.018Z" transform="translate(-111.254 -383.431)" fill="#fffbf8"/>
      <path id="Path_262" data-name="Path 262" d="M103.579,457.533l-.006.033,0,.032.005-.032Z" transform="translate(-102.835 -388.478)" fill="#fffbf8"/>
      <path id="Path_263" data-name="Path 263" d="M103.558,457.692l-.007.05v0Z" transform="translate(-102.833 -388.49)" fill="#fffbf8"/>
      <path id="Path_264" data-name="Path 264" d="M103.683,456.764c.017-.138.039-.276.06-.413l.014-.1-.016.1c-.02.135-.041.274-.058.413l0,.012v.01l0-.009Z" transform="translate(-102.843 -388.384)" fill="#fffbf8"/>
      <path id="Path_265" data-name="Path 265" d="M103.662,456.918c-.012.082-.023.163-.035.246l-.031.217.032-.215C103.639,457.08,103.651,457,103.662,456.918Z" transform="translate(-102.837 -388.433)" fill="#fffbf8"/>
      <path id="Path_266" data-name="Path 266" d="M103.311,459.7l.031-.273c-.01.092-.021.181-.032.273v.007l0,.012,0-.012Z" transform="translate(-102.816 -388.616)" fill="#fffbf8"/>
      <path id="Path_267" data-name="Path 267" d="M102.908,464.562c-.008.158-.018.317-.026.476v.014l0-.015C102.89,464.878,102.9,464.72,102.908,464.562Z" transform="translate(-102.785 -388.991)" fill="#fffbf8"/>
      <path id="Path_268" data-name="Path 268" d="M103.09,461.925c-.007.091-.016.181-.023.273,0,.047-.006.094-.01.14,0-.047.006-.094.011-.141C103.076,462.107,103.084,462.016,103.09,461.925Z" transform="translate(-102.797 -388.798)" fill="#fffbf8"/>
      <path id="Path_269" data-name="Path 269" d="M103,463l.008-.121L103,463c-.025.3-.045.605-.065.961v.006l0,0C102.957,463.6,102.978,463.3,103,463Z" transform="translate(-102.789 -388.868)" fill="#fffbf8"/>
      <path id="Path_270" data-name="Path 270" d="M183.012,383.252c.178-.012.357-.017.535-.028C183.369,383.235,183.19,383.24,183.012,383.252Z" transform="translate(-108.631 -383.056)" fill="#fffbf8"/>
      <path id="Path_271" data-name="Path 271" d="M175.888,384.045h0l.011,0Z" transform="translate(-108.111 -383.116)" fill="#fffbf8"/>
      <path id="Path_273" data-name="Path 273" d="M192.322,383.107c1.807.068,3.612.193,5.4.379C195.934,383.3,194.129,383.175,192.322,383.107Z" transform="translate(-109.31 -383.048)" fill="#fffbf8"/>
      <path id="Path_274" data-name="Path 274" d="M207.138,384.953c.512.108,1.017.222,1.523.339C208.155,385.175,207.65,385.061,207.138,384.953Z" transform="translate(-110.391 -383.182)" fill="#fffbf8"/>
      <path id="Path_275" data-name="Path 275" d="M227.483,392.044c1.162.578,2.32,1.189,3.454,1.823C229.8,393.232,228.645,392.621,227.483,392.044Z" transform="translate(-111.876 -383.7)" fill="#fffbf8"/>
      <path id="Path_276" data-name="Path 276" d="M245.236,403.822c-.153-.132-.3-.263-.464-.395l-.311-.26.31.26C244.931,403.559,245.083,403.691,245.236,403.822Z" transform="translate(-113.115 -384.511)" fill="#fffbf8"/>
      <path id="Path_277" data-name="Path 277" d="M160.836,419.163a66.172,66.172,0,0,1,33.36-19.411,66.108,66.108,0,0,0-33.36,19.411Z" transform="translate(-107.013 -384.262)" fill="#fffbf8"/>
      <path id="Path_279" data-name="Path 279" d="M102.781,468.622v0c0,.089,0,.177,0,.265s0,.156,0,.234c0-.078,0-.156,0-.234Z" transform="translate(-102.777 -389.287)" fill="#fffbf8"/>
      <path id="Path_280" data-name="Path 280" d="M119.95,510.4a57.3,57.3,0,0,1-17.164-40.178l0-.215v-.254c0-.078,0-.153,0-.23,0,.075,0,.152,0,.228s0,.17,0,.255l0,.216A57.647,57.647,0,0,0,160.422,527a58.333,58.333,0,0,0,7.2-.455,58.5,58.5,0,0,1-7.2.454A57.286,57.286,0,0,1,119.95,510.4Z" transform="translate(-102.777 -389.353)" fill="#fffbf8"/>
      <path id="Path_281" data-name="Path 281" d="M247.2,405.559l.026.026c.142.127.281.257.423.389-.142-.133-.281-.261-.422-.391l-.028-.025-.185-.169-.091-.081.093.083Z" transform="translate(-113.294 -384.668)" fill="#fffbf8"/>
      <path id="Path_282" data-name="Path 282" d="M248.675,406.937l-.03-.028-.012-.012.011.013Z" transform="translate(-113.419 -384.783)" fill="#fffbf8"/>
      <path id="Path_283" data-name="Path 283" d="M249.475,407.71a.072.072,0,0,1,.017.017l.006,0-.021-.021c-.094-.091-.19-.184-.284-.277-.126-.123-.255-.245-.384-.366.128.121.257.244.381.365C249.285,407.526,249.384,407.621,249.475,407.71Z" transform="translate(-113.432 -384.796)" fill="#fffbf8"/>
      <path id="Path_284" data-name="Path 284" d="M248.207,406.5c-.122-.116-.238-.229-.369-.349l-.016-.014.014.016C247.968,406.267,248.083,406.38,248.207,406.5Z" transform="translate(-113.36 -384.728)" fill="#fffbf8"/>
      <path id="Path_285" data-name="Path 285" d="M102.879,465.131v.01c0,.019,0,.036,0,.054l0-.052Z" transform="translate(-102.784 -389.032)" fill="#fffbf8"/>
      <path id="Path_286" data-name="Path 286" d="M102.87,465.367v0Z" transform="translate(-102.784 -389.049)" fill="#fffbf8"/>
      <path id="Path_287" data-name="Path 287" d="M102.8,467.445v-.108c0-.051,0-.1,0-.15.006-.315.014-.62.027-.947l.008-.229c0,.076-.006.151-.008.227-.013.328-.021.637-.029.947,0,.051,0,.1,0,.152v.11c-.006.255-.009.51-.012.769l0,.145,0-.145C102.786,467.958,102.79,467.7,102.8,467.445Z" transform="translate(-102.777 -389.096)" fill="#fffbf8"/>
      <path id="Path_288" data-name="Path 288" d="M103.7,450.836l-.011.074-.014.1c-.021.137-.044.275-.06.413v.013l0,.009v0c0,.026-.006.053-.01.08-.011.082-.023.162-.033.247l-.032.215-.006.038-.008.065v0l0,.034-.006.032,0,.016-.006.066-.006.05v.009l-.007.034c-.034.262-.07.529-.1.8-.029.235-.055.476-.082.718l-.031.273v.008l0,.012v.006c-.034.288-.065.581-.1.87-.021.215-.038.435-.06.654v.021l-.021.216c-.008.085-.014.171-.021.257s-.015.182-.022.272c0,.047-.007.094-.011.141-.006.07-.013.139-.019.209l-.018.261-.008.121c-.026.3-.047.606-.064.964l0,0,0,0v.013c-.008.152-.015.3-.023.455s-.018.316-.024.475l0,.015,0,.016v.034l0,.052c0,.034,0,.07-.006.108v.057l0,.051c-.008.178-.015.357-.021.537l-.008.229c-.013.327-.021.632-.027.947,0,.047,0,.1,0,.15v.108c-.008.259-.013.513-.013.771l0,.145,0,.066v.272c0,.078,0,.156,0,.234,0,.055,0,.11,0,.166s0,.111,0,.167c0,.077,0,.152,0,.23v.254l0,.215a57.646,57.646,0,0,0,57.639,56.777,58.5,58.5,0,0,0,7.2-.454c1.076-.133,2.15-.287,3.214-.479l0,0a66.667,66.667,0,0,1-25.213-27.539c-.334-.678-.651-1.362-.96-2.049-.034-.075-.071-.148-.1-.224a66.35,66.35,0,0,1,6.2-64.766,66.85,66.85,0,0,1,5.836-7.231,66.311,66.311,0,0,1,82.241-11.964l0-.006a.072.072,0,0,0-.017-.017c-.091-.089-.19-.184-.285-.279-.124-.121-.253-.244-.381-.365l-.118-.113,0,0L238,405.17l-.011-.013-.019-.022c-.108-.1-.232-.215-.348-.324s-.239-.229-.371-.347l-.014-.016-.012-.015-.031-.025c-.02-.02-.042-.039-.063-.058-.142-.133-.281-.262-.423-.389l-.026-.026-.184-.168-.093-.083c-.2-.186-.408-.371-.61-.551-.232-.206-.456-.4-.68-.593-.07-.062-.146-.125-.219-.186-.153-.132-.3-.263-.464-.395l-.31-.26-.169-.141,0-.009-.124-.1-.065-.053c-.185-.155-.362-.3-.542-.443l-.027-.023-.012-.011-.018-.013-.021-.017c-.133-.112-.272-.22-.4-.328h0l-.012-.013-.009,0-.008,0c-.431-.349-.883-.7-1.334-1.046l-.009-.008-.013-.008c-.121-.1-.24-.185-.366-.281l-.146-.112-.09-.069c-.019-.016-.041-.031-.061-.045l-.02-.015-.006,0-.016-.013-.012-.008-.022-.013-.252-.189-.093-.07-.345-.254c-.034-.026-.072-.052-.108-.079-.066-.046-.13-.095-.2-.14l-.138-.1,0,0-.006-.006-.007,0-.01,0c-.135-.1-.271-.2-.407-.292-.032-.022-.064-.047-.1-.07l-.039-.026-.034-.026c-.332-.233-.663-.464-1-.7l-.009,0,0,0-.013-.006c-.15-.1-.3-.208-.451-.31-.036-.024-.071-.05-.108-.074l0,0-.014-.009c-.223-.146-.449-.3-.677-.444l-.038-.025h0l-.017-.013-.021-.012c-.048-.032-.1-.063-.145-.094-.163-.107-.325-.213-.488-.316l-.026-.017h0l-.024-.017c-.242-.159-.487-.31-.736-.464l-.026-.015,0,0-.034-.021c-.25-.159-.5-.319-.762-.469l-.4-.246,0,0-.186-.11-.232-.139-.016-.007v0h0l-.011-.007c-.047-.029-.095-.055-.142-.082q-.274-.16-.551-.318l-.138-.082-.189-.108c-.17-.1-.339-.2-.509-.291-.016-.01-.033-.018-.05-.027-1.134-.634-2.292-1.245-3.454-1.823l-.077-.04-.013,0-.008,0-.026-.013c-.255-.133-.513-.259-.775-.379l-.684-.327,0,0c-.018-.01-.039-.019-.059-.028l-.04-.019-.017-.009h-.006l-.011,0c-.809-.383-1.555-.714-2.273-1.02l-.019-.009-.016-.008-.016-.006-.019-.006c-.172-.079-.344-.151-.521-.224l-.073-.03-.052-.022-.009-.006,0,0-.311-.129-.332-.135c-.052-.021-.1-.043-.155-.063-.77-.31-1.4-.56-1.984-.775l-.35-.129-.047-.018-.366-.137c-.977-.353-1.992-.7-3.013-1.025l-.013,0-.013,0-.05-.015c-.195-.063-.388-.123-.583-.183s-.4-.122-.6-.184l-.358-.109c-.443-.13-.865-.25-1.269-.362l-.02,0H204.2l-.011,0-.015,0-.167-.045-.263-.071-.055-.016-.079-.022c-.841-.226-1.7-.428-2.56-.629-.506-.118-1.011-.231-1.523-.339-.857-.184-1.717-.365-2.581-.522-.324-.056-.642-.112-.965-.164l-.018,0h-.021c-.318-.056-.641-.107-.964-.154l-.447-.068-.56-.083q-1.381-.192-2.776-.337c-1.792-.186-3.6-.311-5.4-.379q-1.507-.057-3.014-.059c-1.692,0-3.389.061-5.082.168-.178.011-.357.016-.535.028-1.87.13-3.733.324-5.576.579-.331.047-.663.1-.99.146a.093.093,0,0,1-.027.006l-.011,0h0l-66.847,66.841Z" transform="translate(-102.777 -383.043)" fill="#f60"/>
      <path id="Path_289" data-name="Path 289" d="M263.753,476.91l.008-.06.008-.065c.017-.111.034-.228.047-.34l0-.025,0-.044.009-.047c.021-.147.047-.3.064-.444l.009-.1.017-.1c.008-.048.013-.095.022-.137l.06-.5.047-.344c.043-.332.077-.642.112-.952l0-.044c.034-.3.064-.576.091-.86.021-.236.047-.461.064-.68v-.013l.021-.215c.018-.159.031-.314.039-.469l0-.061,0-.059c.021-.2.034-.405.046-.607v-.031l0-.051c.026-.293.048-.6.065-.951v-.022c.021-.314.039-.62.056-.921l0-.091v-.125l0-.124c.018-.254.026-.513.035-.771.013-.349.021-.68.03-1.011l0-.043v-.15c0-.237.008-.478.008-.719v-.272l0-.043c0-.207,0-.413,0-.616s0-.434,0-.645v-.017l0-.207a57.639,57.639,0,0,0-57.638-56.778,58.25,58.25,0,0,0-10.418.935,66.276,66.276,0,0,1-68,113.777l.017.019.048.042.043.044a1.508,1.508,0,0,0,.146.142l.159.155c.129.129.258.253.391.379l.021.021.027.021c.215.207.468.452.718.681l.039.03.034.034c.163.155.327.31.5.461l.013.013.018.012c.288.267.581.531.882.794l.018.012.018.017c.194.172.387.345.585.517l.039.03.129.112.013,0,.568.49.116.1.027.026c.155.13.305.258.464.383l.06.047.056.052c.133.116.285.235.452.37l.056.044.052.043c.121.1.241.2.357.288l.039.031.034.03c.426.345.87.69,1.317,1.029.095.078.194.151.288.223.112.087.22.169.331.25.066.047.126.09.182.137l.108.078c.176.134.358.266.538.4l.169.121.271.193.034.026.039.025c.129.1.267.194.4.289l.147.1c.327.234.662.465,1,.7l.031.018.031.021c.146.1.3.2.443.3l.111.073.371.246.391.262c.2.129.405.267.617.4s.417.268.619.4h.508l.908.865c.138.086.281.172.423.254.275.162.555.327.834.482l.027.018.025.016c.22.13.439.25.664.375,1.179.667,2.375,1.3,3.572,1.89.268.133.53.262.793.388.039.021.077.038.116.059.25.116.5.234.745.353.754.353,1.524.7,2.277,1.021l.018,0,.018.008c.184.082.378.163.564.241.057.022.117.047.181.078.249.1.5.207.754.31.616.249,1.283.509,1.98.771l.021.007.021.009c.215.082.43.163.651.24l.03.009.026.009c1.02.375,2.032.718,3,1.024l.035.013.03.008c.2.069.392.129.59.189l.031,0,.026.008c.3.1.593.185.89.275l.25.074c.357.1.71.2,1.063.3.2.056.375.1.551.151l.044.008c2.2.594,4.446,1.093,6.66,1.484l.025.009.026.006.918.159h.02l.018,0c.357.059.654.108.926.146l.043,0,.043.009c.311.05.625.094.934.137l.026,0a81.213,81.213,0,0,0,22.385,0l.078-.014c.3-.043.59-.082.883-.128l.043-.009.03,0,66.847-66.847A1,1,0,0,1,263.753,476.91Z" transform="translate(-104.661 -384.802)" fill="#262e3a"/>
    </g>
  </g>
</svg>
