<svg xmlns="http://www.w3.org/2000/svg" width="380.583" height="160" viewBox="0 0 380.583 160">
  <g id="Group_65" data-name="Group 65" transform="translate(-270.408 -4498)">
    <g id="Group_50" data-name="Group 50" transform="translate(270.408 4498)">
      <path id="Path_148" data-name="Path 148" d="M174.209,90.548l4.633,8.024,15.214,26.354c.892-.006,1.772-.01,2.646-.01,1.695,0,3.395.01,5.093.039L174.209,77.171l-30.12,52.171c2.8-.495,5.638-.952,8.509-1.365l16.976-29.4Z" transform="translate(-88.949 -66.473)" fill="none"/>
      <path id="Path_149" data-name="Path 149" d="M208.1,169.414l-10.412-18.037c-23.576,3.571-43.844,9.907-58.421,18.037Z" transform="translate(-88.397 -74.977)" fill="none"/>
      <path id="Path_156" data-name="Path 156" d="M172.843,99.863l16.78,29.068q2.839-.053,5.713-.05,7.367,0,14.526.324L172.843,65.088l-40.676,70.454c7.065-1.611,14.557-2.96,22.392-4.012Zm-30.12,28.094,30.12-52.171,27.585,47.785c-1.7-.029-3.4-.039-5.093-.039-.874,0-1.754,0-2.646.01L177.476,97.188l-4.633-8.024-4.636,8.024-16.976,29.4C148.361,127.005,145.519,127.462,142.723,127.957Z" transform="translate(-87.583 -65.088)" fill="#262e3a"/>
      <path id="Path_157" data-name="Path 157" d="M142.126,233.847c-20.981-9.22-33.8-21.559-33.8-35.115a24.05,24.05,0,0,1,4.089-13.06H231.634l-21.72-37.619c8.263-.687,16.821-1.047,25.584-1.047a304.3,304.3,0,0,1,34.077,1.88c-.624-.2-1.269-.394-1.9-.591.635.2,1.279.389,1.9.591.729.081,1.452.165,2.175.252q-2.867-.726-5.836-1.387l0,0a279.173,279.173,0,0,0-59.772-6.233c-.128,0-.259,0-.387,0q-7.405,0-14.588.342-2.392.113-4.756.262h0a263.3,263.3,0,0,0-42.094,5.921q-1.656.379-3.28.778a175.509,175.509,0,0,0-21,6.5c-23.556,9.042-38.222,21.778-38.222,35.886C81.812,209.315,105.991,225.167,142.126,233.847Zm48.977-83.6,10.412,18.037H132.682C147.259,160.153,167.527,153.817,191.1,150.247Z" transform="translate(-81.812 -73.847)" fill="#f60"/>
    </g>
    <g id="Group_49" data-name="Group 49" transform="translate(472.184 4558.207)">
      <path id="Path_150" data-name="Path 150" d="M122.639,263.073a2.417,2.417,0,0,0-1.619.583,2.264,2.264,0,0,0-.684,1.819v12.548a2.262,2.262,0,0,0,.684,1.819,2.535,2.535,0,0,0,3.238,0,2.265,2.265,0,0,0,.684-1.819V265.476a2.267,2.267,0,0,0-.684-1.819A2.416,2.416,0,0,0,122.639,263.073Z" transform="translate(-89.918 -259.67)" fill="none"/>
      <path id="Path_151" data-name="Path 151" d="M218.5,267.181l-1.669,8.61h3.4l-1.669-8.61Z" transform="translate(-100.977 -260.14)" fill="none"/>
      <path id="Path_152" data-name="Path 152" d="M196.743,301.932a1.218,1.218,0,0,0,.436.346,1.23,1.23,0,0,0,.634.156,1.3,1.3,0,0,0,.648-.156,1.155,1.155,0,0,0,.416-.346,1.211,1.211,0,0,0,.279-.581,8.539,8.539,0,0,0,.071-1.378,8.714,8.714,0,0,0-.071-1.386,1.21,1.21,0,0,0-.279-.573,1.253,1.253,0,0,0-.416-.355,1.526,1.526,0,0,0-.648-.146,1.445,1.445,0,0,0-.634.146,1.321,1.321,0,0,0-.436.355,1.146,1.146,0,0,0-.27.573,8.245,8.245,0,0,0-.075,1.386,8.08,8.08,0,0,0,.075,1.378A1.149,1.149,0,0,0,196.743,301.932Z" transform="translate(-98.635 -263.617)" fill="none"/>
      <path id="Path_153" data-name="Path 153" d="M191.834,264.241a1.9,1.9,0,0,0-.8-.868,3.182,3.182,0,0,0-1.535-.3H187.73v8.076h1.634a3.468,3.468,0,0,0,1.6-.3,1.891,1.891,0,0,0,.835-.834,3.07,3.07,0,0,0,.317-1.235q.05-.733.05-1.635,0-.834-.033-1.585A3.446,3.446,0,0,0,191.834,264.241Z" transform="translate(-97.642 -259.67)" fill="none"/>
      <path id="Path_154" data-name="Path 154" d="M273.648,298.443a.922.922,0,0,0-.346-.781,1.194,1.194,0,0,0-.766-.213H270.9v2.091h1.58a1.139,1.139,0,0,0,.879-.34A1.064,1.064,0,0,0,273.648,298.443Z" transform="translate(-107.174 -263.609)" fill="none"/>
      <path id="Path_155" data-name="Path 155" d="M100.4,297.995l-1,3.014h2.016l-1-3.014Z" transform="translate(-87.518 -263.672)" fill="none"/>
      <path id="Path_158" data-name="Path 158" d="M93.8,282.94a5.545,5.545,0,0,0,1.719-1.218,5.76,5.76,0,0,0,1.152-1.752,5.29,5.29,0,0,0,.417-2.086v-1.468h-3.4v1.168a2.966,2.966,0,0,1-.2,1.168,2.019,2.019,0,0,1-.5.734,2.131,2.131,0,0,1-.717.384,2.478,2.478,0,0,1-.718.117,1.776,1.776,0,0,1-1.618-.7,3.144,3.144,0,0,1-.45-1.735V265.4a4.188,4.188,0,0,1,.417-1.987,1.729,1.729,0,0,1,1.685-.784,1.842,1.842,0,0,1,1.535.734,2.756,2.756,0,0,1,.568,1.735v1.135h3.4V264.9a6.142,6.142,0,0,0-.417-2.286,5.575,5.575,0,0,0-1.152-1.819,5.159,5.159,0,0,0-3.9-1.568,5.87,5.87,0,0,0-2.253.417,5.263,5.263,0,0,0-1.751,1.151,5.1,5.1,0,0,0-1.135,1.735,5.8,5.8,0,0,0-.4,2.169v13.082a6.073,6.073,0,0,0,.518,2.686,5.166,5.166,0,0,0,1.318,1.719,4.649,4.649,0,0,0,1.8.934,7.618,7.618,0,0,0,1.969.267A5.033,5.033,0,0,0,93.8,282.94Z" transform="translate(-85.991 -259.229)" fill="#262e3a"/>
      <path id="Path_159" data-name="Path 159" d="M127.9,265.035a6.072,6.072,0,0,0-.5-2.537,5.581,5.581,0,0,0-1.3-1.835,6,6,0,0,0-5.956-1.068,5.641,5.641,0,0,0-1.819,1.068,5.355,5.355,0,0,0-1.335,1.835,6.058,6.058,0,0,0-.5,2.537v12.548a6,6,0,0,0,.5,2.569,5.064,5.064,0,0,0,1.335,1.768,5.328,5.328,0,0,0,1.819,1.1,5.915,5.915,0,0,0,4.1,0,5.7,5.7,0,0,0,1.851-1.1,5.265,5.265,0,0,0,1.3-1.768,6.009,6.009,0,0,0,.5-2.569Zm-3.4,12.548a2.265,2.265,0,0,1-.684,1.819,2.535,2.535,0,0,1-3.238,0,2.262,2.262,0,0,1-.684-1.819V265.035a2.264,2.264,0,0,1,.684-1.819,2.538,2.538,0,0,1,3.238,0,2.267,2.267,0,0,1,.684,1.819Z" transform="translate(-89.477 -259.229)" fill="#262e3a"/>
      <path id="Path_160" data-name="Path 160" d="M155.56,272.036h-.067l-4.372-12.582h-3.27v23.762h3.4v-14.45h.067l3.337,10.212h1.7l3.371-10.212h.066v14.45h3.4V259.454h-3.3Z" transform="translate(-93.071 -259.255)" fill="#262e3a"/>
      <path id="Path_161" data-name="Path 161" d="M193.4,261.123a4.752,4.752,0,0,0-1.935-1.3,7.606,7.606,0,0,0-2.47-.367h-5.105v23.762h3.4v-9.278h1.735a6.283,6.283,0,0,0,3.069-.651,4.973,4.973,0,0,0,1.87-1.819,5.655,5.655,0,0,0,.784-2.069,16.824,16.824,0,0,0,.184-2.7,13.68,13.68,0,0,0-.334-3.387A5.089,5.089,0,0,0,193.4,261.123Zm-1.719,7.242a3.07,3.07,0,0,1-.317,1.235,1.891,1.891,0,0,1-.835.834,3.468,3.468,0,0,1-1.6.3h-1.634v-8.076h1.768a3.182,3.182,0,0,1,1.535.3,1.9,1.9,0,0,1,.8.868,3.446,3.446,0,0,1,.3,1.318q.033.75.033,1.585Q191.727,267.631,191.677,268.365Z" transform="translate(-97.201 -259.255)" fill="#262e3a"/>
      <path id="Path_162" data-name="Path 162" d="M216.48,259.454l-5.306,23.762h3.4l1-5.107h4.638l1,5.107h3.4l-5.306-23.762Zm-.3,15.451,1.668-8.61h.067l1.668,8.61Z" transform="translate(-100.329 -259.255)" fill="#262e3a"/>
      <path id="Path_163" data-name="Path 163" d="M255.055,283.216V259.454h-3.4v14.317h-.067l-5.139-14.317h-3.271v23.762h3.4V268.932h.067l5.206,14.284Z" transform="translate(-103.996 -259.255)" fill="#262e3a"/>
      <path id="Path_164" data-name="Path 164" d="M281.517,283.216V273.17l4.672-13.716h-3.6l-2.737,9.445h-.067l-2.737-9.445h-3.6l4.672,13.716v10.045Z" transform="translate(-107.465 -259.255)" fill="#262e3a"/>
      <path id="Path_165" data-name="Path 165" d="M88.918,303.3v-5.966h1.887V296.4H85.98v.932h1.887V303.3Z" transform="translate(-85.98 -263.489)" fill="#262e3a"/>
      <path id="Path_166" data-name="Path 166" d="M99.714,296.4l-2.507,6.9h1.107l.529-1.542h2.616l.535,1.542h1.1l-2.507-6.9Zm-.568,4.429,1-3.013h.019l1,3.013Z" transform="translate(-87.267 -263.489)" fill="#262e3a"/>
      <path id="Path_167" data-name="Path 167" d="M112.189,297.88a1.321,1.321,0,0,1,.436-.355,1.449,1.449,0,0,1,.634-.146,1.362,1.362,0,0,1,.852.289,1.518,1.518,0,0,1,.464.709h1.107a2.6,2.6,0,0,0-.794-1.452,2.334,2.334,0,0,0-1.628-.591,2.444,2.444,0,0,0-2.163,1.239,1.926,1.926,0,0,0-.23.659,17.969,17.969,0,0,0,0,3.208,1.917,1.917,0,0,0,.094.369c.041.094.087.193.136.3a2.316,2.316,0,0,0,.8.842,2.456,2.456,0,0,0,3.818-2.053v-1.406h-2.45v.99h1.405v.359a1.447,1.447,0,0,1-.406,1.046,1.337,1.337,0,0,1-1.008.416,1.232,1.232,0,0,1-.634-.156,1.217,1.217,0,0,1-.436-.346,1.141,1.141,0,0,1-.269-.581,8.08,8.08,0,0,1-.075-1.378,8.245,8.245,0,0,1,.075-1.386A1.138,1.138,0,0,1,112.189,297.88Z" transform="translate(-88.824 -263.481)" fill="#262e3a"/>
      <path id="Path_168" data-name="Path 168" d="M124.3,296.4v6.9h4.4v-.989h-3.359V296.4Z" transform="translate(-90.372 -263.489)" fill="#262e3a"/>
      <rect id="Rectangle_54" data-name="Rectangle 54" width="1.045" height="6.899" transform="translate(45.132 32.908)" fill="#262e3a"/>
      <path id="Path_169" data-name="Path 169" d="M146.343,296.4v6.9h1.045v-4.9h.019l3.118,4.9h.989v-6.9h-1.045v4.9h-.019l-3.123-4.9Z" transform="translate(-92.898 -263.489)" fill="#262e3a"/>
      <path id="Path_170" data-name="Path 170" d="M164.8,297.386V296.4h-4.4v6.9h4.4v-.989h-3.359v-2.025h2.867v-.927h-2.867v-1.968Z" transform="translate(-94.509 -263.489)" fill="#262e3a"/>
      <path id="Path_171" data-name="Path 171" d="M182.274,297.572a1.925,1.925,0,0,0-.232.659,18.19,18.19,0,0,0,0,3.208,1.979,1.979,0,0,0,.095.369c.042.094.087.193.137.3a2.306,2.306,0,0,0,.8.842,2.455,2.455,0,0,0,3.818-2.053v-1.406h-2.45v.99h1.405v.359a1.454,1.454,0,0,1-.406,1.046,1.337,1.337,0,0,1-1.008.416,1.416,1.416,0,0,1-1.07-.5,1.164,1.164,0,0,1-.27-.581,8.178,8.178,0,0,1-.075-1.378,8.346,8.346,0,0,1,.075-1.386,1.161,1.161,0,0,1,.27-.573,1.33,1.33,0,0,1,.436-.355,1.446,1.446,0,0,1,.634-.146,1.36,1.36,0,0,1,.852.289,1.516,1.516,0,0,1,.463.709h1.108a2.6,2.6,0,0,0-.8-1.452,2.33,2.33,0,0,0-1.627-.591,2.441,2.441,0,0,0-2.162,1.239Z" transform="translate(-96.982 -263.481)" fill="#262e3a"/>
      <path id="Path_172" data-name="Path 172" d="M195.514,297.572a1.926,1.926,0,0,0-.231.659,18.19,18.19,0,0,0,0,3.208,1.913,1.913,0,0,0,.095.369c.041.094.087.193.136.3a2.316,2.316,0,0,0,.8.842,2.437,2.437,0,0,0,1.358.4,2.482,2.482,0,0,0,1.372-.4,2.243,2.243,0,0,0,.784-.842,1.591,1.591,0,0,0,.242-.667,20.788,20.788,0,0,0,0-3.208,1.59,1.59,0,0,0-.242-.659,2.316,2.316,0,0,0-.784-.851,2.415,2.415,0,0,0-1.372-.388,2.444,2.444,0,0,0-2.163,1.239Zm.823.881a1.146,1.146,0,0,1,.27-.573,1.321,1.321,0,0,1,.436-.355,1.446,1.446,0,0,1,.634-.146,1.526,1.526,0,0,1,.648.146,1.253,1.253,0,0,1,.416.355,1.21,1.21,0,0,1,.279.573,8.711,8.711,0,0,1,.071,1.386,8.537,8.537,0,0,1-.071,1.378,1.211,1.211,0,0,1-.279.581,1.155,1.155,0,0,1-.416.346,1.3,1.3,0,0,1-.648.156,1.23,1.23,0,0,1-.634-.156,1.218,1.218,0,0,1-.436-.346,1.149,1.149,0,0,1-.27-.581,8.08,8.08,0,0,1-.075-1.378A8.245,8.245,0,0,1,196.337,298.453Z" transform="translate(-98.499 -263.481)" fill="#262e3a"/>
      <path id="Path_173" data-name="Path 173" d="M208.719,303.3h4.4v-.989h-3.359v-2.025h2.867v-.927h-2.867v-1.968h3.359V296.4h-4.4Z" transform="translate(-100.047 -263.489)" fill="#262e3a"/>
      <path id="Path_174" data-name="Path 174" d="M223.338,302.3a3.026,3.026,0,0,1-1.958-.686l-.686.786a3.918,3.918,0,0,0,2.636.946q2.371-.029,2.422-2.007a1.956,1.956,0,0,0-.459-1.286,2.142,2.142,0,0,0-1.433-.7q-.493-.062-.776-.11a1.332,1.332,0,0,1-.743-.34.764.764,0,0,1-.232-.54.9.9,0,0,1,.345-.747,1.3,1.3,0,0,1,.8-.241,3.156,3.156,0,0,1,1.708.529l.582-.861a3.869,3.869,0,0,0-2.237-.714,2.349,2.349,0,0,0-1.652.558,1.89,1.89,0,0,0-.6,1.457,1.828,1.828,0,0,0,.478,1.278,2.254,2.254,0,0,0,1.353.658l.914.127q.907.157.9.927Q224.683,302.28,223.338,302.3Z" transform="translate(-101.42 -263.481)" fill="#262e3a"/>
      <path id="Path_175" data-name="Path 175" d="M248.229,303.3v-6.9h-1.045v2.957h-2.73V296.4h-1.046v6.9h1.046v-3.014h2.73V303.3Z" transform="translate(-104.023 -263.489)" fill="#262e3a"/>
      <path id="Path_176" data-name="Path 176" d="M261.47,297.386V296.4h-4.4v6.9h4.4v-.989h-3.359v-2.025h2.867v-.927h-2.867v-1.968Z" transform="translate(-105.588 -263.489)" fill="#262e3a"/>
      <path id="Path_177" data-name="Path 177" d="M273.167,300.234a1.919,1.919,0,0,0,1.334-1.912,1.833,1.833,0,0,0-.686-1.472,2.118,2.118,0,0,0-1.405-.455h-2.692v6.9h1.046v-2.948H272.1l1.424,2.948h1.246Zm-2.4-.815v-2.091H272.4a1.194,1.194,0,0,1,.766.213.922.922,0,0,1,.346.781,1.064,1.064,0,0,1-.289.757,1.139,1.139,0,0,1-.879.34Z" transform="translate(-107.038 -263.489)" fill="#262e3a"/>
      <path id="Path_178" data-name="Path 178" d="M287.363,297.386V296.4h-4.4v6.9h4.4v-.989H284v-2.025h2.867v-.927H284v-1.968Z" transform="translate(-108.556 -263.489)" fill="#262e3a"/>
    </g>
  </g>
</svg>
