<svg xmlns="http://www.w3.org/2000/svg" width="347.27" height="160" viewBox="0 0 347.27 160">
  <g id="Group_67" data-name="Group 67" transform="translate(-409.517 -4572)">
    <g id="Group_51" data-name="Group 51" transform="translate(409.517 4572)">
      <path id="Path_179" data-name="Path 179" d="M472.4,213.5a21.059,21.059,0,0,0-4.424-23.231l-34-34.006C440,174.771,449.41,190.5,462,203.088Z" transform="translate(-418.61 -70.333)" fill="none"/>
      <path id="Path_180" data-name="Path 180" d="M538.945,102.815l34,34c-6.024-18.513-15.433-34.242-28.02-46.831L534.521,79.581A21.064,21.064,0,0,0,538.945,102.815Z" transform="translate(-428.392 -62.742)" fill="none"/>
      <path id="Path_181" data-name="Path 181" d="M458.673,111.954l34.006-34.006c-18.513,6.028-34.244,15.433-46.831,28.023l-10.413,10.414a21.072,21.072,0,0,0,23.239-4.431Z" transform="translate(-418.754 -62.581)" fill="none"/>
      <path id="Path_182" data-name="Path 182" d="M546.375,183,512.368,217c18.513-6.025,34.245-15.434,46.831-28.024l10.414-10.413A21.062,21.062,0,0,0,546.375,183Z" transform="translate(-426.37 -72.371)" fill="none"/>
      <path id="Path_183" data-name="Path 183" d="M462.822,115.728l54.832-54.836-21.793,5.966c-22.676,6.2-41.786,16.957-56.791,31.962l-16.9,16.908a28.751,28.751,0,0,0,40.656,0Zm-18.289-11.445c12.587-12.59,28.318-22,46.831-28.023l-34.006,34.006A21.072,21.072,0,0,1,434.12,114.7Z" transform="translate(-417.44 -60.892)" fill="#f60"/>
      <path id="Path_184" data-name="Path 184" d="M454.849,205.663l16.9,16.906a28.751,28.751,0,0,0,0-40.656L416.921,127.08l5.962,21.792C429.086,171.548,439.843,190.658,454.849,205.663Zm11.442-18.288a21.059,21.059,0,0,1,4.424,23.231L460.308,200.2c-12.586-12.586-22-28.318-28.019-46.83Z" transform="translate(-416.921 -67.445)" fill="#262e3a"/>
      <path id="Path_185" data-name="Path 185" d="M558.351,168.267a28.659,28.659,0,0,0-20.328,8.423l-54.832,54.832,21.792-5.961c22.676-6.2,41.786-16.961,56.791-31.966l16.9-16.906a28.668,28.668,0,0,0-20.327-8.423Zm-2.041,19.864c-12.586,12.59-28.318,22-46.83,28.024l34.007-34.007a21.062,21.062,0,0,1,23.238-4.43Z" transform="translate(-423.482 -71.522)" fill="#f60"/>
      <path id="Path_186" data-name="Path 186" d="M532.634,106.96l54.831,54.833L581.5,140c-6.2-22.676-16.961-41.786-31.967-56.792l-16.9-16.9A28.743,28.743,0,0,0,532.634,106.96Zm1.038-28.693,10.406,10.406c12.587,12.59,22,28.318,28.02,46.831l-34-34A21.064,21.064,0,0,1,533.672,78.267Z" transform="translate(-427.543 -61.428)" fill="#262e3a"/>
    </g>
    <g id="Group_52" data-name="Group 52" transform="translate(580.758 4632.367)">
      <g id="Group_40" data-name="Group 40" transform="translate(0 0)">
        <path id="Path_187" data-name="Path 187" d="M443.486,268.611a2.377,2.377,0,0,0-1.594.575,2.227,2.227,0,0,0-.674,1.79v12.353a2.229,2.229,0,0,0,.674,1.791,2.5,2.5,0,0,0,3.188,0,2.228,2.228,0,0,0,.673-1.791V270.976a2.226,2.226,0,0,0-.673-1.79A2.381,2.381,0,0,0,443.486,268.611Z" transform="translate(-411.274 -265.259)" fill="none"/>
        <path id="Path_188" data-name="Path 188" d="M536.208,272.586l-1.643,8.476h3.352l-1.643-8.476Z" transform="translate(-420.515 -265.653)" fill="none"/>
        <path id="Path_189" data-name="Path 189" d="M588.486,301.867h-1.612v2.059h1.556a1.127,1.127,0,0,0,.867-.335,1.048,1.048,0,0,0,.283-.745.9.9,0,0,0-.34-.769A1.177,1.177,0,0,0,588.486,301.867Z" transform="translate(-425.693 -268.552)" fill="none"/>
        <path id="Path_190" data-name="Path 190" d="M515.143,306.279a1.385,1.385,0,0,0,1.052.494,1.266,1.266,0,0,0,.637-.153,1.136,1.136,0,0,0,.41-.341,1.2,1.2,0,0,0,.276-.572,8.568,8.568,0,0,0,.069-1.356,8.755,8.755,0,0,0-.069-1.365,1.434,1.434,0,0,0-.686-.913,1.5,1.5,0,0,0-.637-.144,1.429,1.429,0,0,0-.625.144,1.279,1.279,0,0,0-.427.35,1.115,1.115,0,0,0-.266.563,7.99,7.99,0,0,0-.076,1.365,7.82,7.82,0,0,0,.076,1.356A1.124,1.124,0,0,0,515.143,306.279Z" transform="translate(-418.558 -268.558)" fill="none"/>
        <path id="Path_191" data-name="Path 191" d="M510.456,269.761a1.861,1.861,0,0,0-.788-.854,3.122,3.122,0,0,0-1.511-.3h-1.741v7.95h1.609a3.44,3.44,0,0,0,1.578-.3,1.864,1.864,0,0,0,.821-.822,3,3,0,0,0,.313-1.215q.049-.723.05-1.61,0-.82-.033-1.561A3.345,3.345,0,0,0,510.456,269.761Z" transform="translate(-417.728 -265.259)" fill="none"/>
        <path id="Path_192" data-name="Path 192" d="M421.964,302.394h-.019l-.982,2.967h1.984Z" transform="translate(-409.268 -268.604)" fill="none"/>
        <path id="Path_193" data-name="Path 193" d="M409.88,287.494a4.575,4.575,0,0,0,1.774.92,7.477,7.477,0,0,0,1.938.263,4.959,4.959,0,0,0,2.087-.443,5.478,5.478,0,0,0,1.692-1.2,5.7,5.7,0,0,0,1.133-1.725,5.2,5.2,0,0,0,.41-2.053v-1.445h-3.351v1.15a2.93,2.93,0,0,1-.2,1.151,2,2,0,0,1-.493.722,2.092,2.092,0,0,1-.707.378,2.436,2.436,0,0,1-.706.115,1.747,1.747,0,0,1-1.593-.69,3.1,3.1,0,0,1-.443-1.708V270.969a4.123,4.123,0,0,1,.411-1.954,1.7,1.7,0,0,1,1.659-.772,1.811,1.811,0,0,1,1.512.723,2.719,2.719,0,0,1,.558,1.708v1.117h3.351v-1.315a6.048,6.048,0,0,0-.41-2.251,5.529,5.529,0,0,0-1.133-1.79,5.08,5.08,0,0,0-3.844-1.544,5.793,5.793,0,0,0-2.218.411,5.192,5.192,0,0,0-1.725,1.133,5.014,5.014,0,0,0-1.117,1.709,5.691,5.691,0,0,0-.395,2.135v12.878a5.994,5.994,0,0,0,.509,2.645A5.109,5.109,0,0,0,409.88,287.494Z" transform="translate(-407.992 -264.891)" fill="#f60"/>
        <path id="Path_194" data-name="Path 194" d="M448.736,270.608a5.971,5.971,0,0,0-.493-2.5,5.493,5.493,0,0,0-1.281-1.807,6.032,6.032,0,0,0-3.844-1.413,5.925,5.925,0,0,0-2.021.361,5.573,5.573,0,0,0-1.79,1.052,5.286,5.286,0,0,0-1.315,1.807,5.985,5.985,0,0,0-.492,2.5v12.353a5.93,5.93,0,0,0,.492,2.53,5.022,5.022,0,0,0,1.315,1.741,5.278,5.278,0,0,0,1.79,1.085,5.833,5.833,0,0,0,4.042,0,5.655,5.655,0,0,0,1.823-1.085,5.208,5.208,0,0,0,1.281-1.741,5.916,5.916,0,0,0,.493-2.53Zm-3.351,12.353a2.228,2.228,0,0,1-.673,1.791,2.5,2.5,0,0,1-3.188,0,2.229,2.229,0,0,1-.674-1.791V270.608a2.227,2.227,0,0,1,.674-1.79,2.5,2.5,0,0,1,3.188,0,2.226,2.226,0,0,1,.673,1.79Z" transform="translate(-410.906 -264.891)" fill="#f60"/>
        <path id="Path_195" data-name="Path 195" d="M475.426,277.5h-.066l-4.3-12.385h-3.22V288.5h3.351V274.276h.065l3.285,10.054h1.676l3.318-10.054h.066V288.5h3.351V265.11H479.7Z" transform="translate(-413.909 -264.913)" fill="#f60"/>
        <path id="Path_196" data-name="Path 196" d="M512.059,266.753a4.672,4.672,0,0,0-1.9-1.281,7.487,7.487,0,0,0-2.432-.361H502.7V288.5h3.352v-9.133h1.708a6.189,6.189,0,0,0,3.022-.642,4.893,4.893,0,0,0,1.841-1.79,5.561,5.561,0,0,0,.772-2.037,16.706,16.706,0,0,0,.18-2.661,13.427,13.427,0,0,0-.329-3.336A5,5,0,0,0,512.059,266.753Zm-1.691,7.13a3,3,0,0,1-.313,1.215,1.864,1.864,0,0,1-.821.822,3.44,3.44,0,0,1-1.578.3h-1.609v-7.95h1.741a3.122,3.122,0,0,1,1.511.3,1.861,1.861,0,0,1,.788.854,3.344,3.344,0,0,1,.3,1.3q.032.739.033,1.561Q510.418,273.159,510.368,273.882Z" transform="translate(-417.36 -264.913)" fill="#f60"/>
        <path id="Path_197" data-name="Path 197" d="M534.321,265.11,529.1,288.5h3.352l.985-5.027H538l.985,5.027h3.351l-5.224-23.392Zm-.3,15.212,1.643-8.476h.066l1.643,8.476Z" transform="translate(-419.973 -264.913)" fill="#f60"/>
        <path id="Path_198" data-name="Path 198" d="M571.749,288.5V265.11H568.4V279.2h-.066l-5.059-14.094h-3.22V288.5h3.352V274.441h.065L568.6,288.5Z" transform="translate(-423.038 -264.913)" fill="#f60"/>
        <path id="Path_199" data-name="Path 199" d="M589.334,265.11l4.6,13.5V288.5h3.352v-9.889l4.6-13.5h-3.548l-2.694,9.3h-.065l-2.694-9.3Z" transform="translate(-425.937 -264.913)" fill="#f60"/>
        <path id="Path_200" data-name="Path 200" d="M409.842,307.639h1.034v-5.873h1.858v-.917h-4.751v.917h1.858Z" transform="translate(-407.983 -268.451)" fill="#f60"/>
        <path id="Path_201" data-name="Path 201" d="M423.03,306.121l.526,1.518h1.086l-2.469-6.79h-.861l-2.469,6.79h1.09l.522-1.518Zm-1.295-3.88h.019l.983,2.967h-1.984Z" transform="translate(-409.059 -268.451)" fill="#f60"/>
        <path id="Path_202" data-name="Path 202" d="M433.362,302.31a1.286,1.286,0,0,1,.429-.35,1.425,1.425,0,0,1,.624-.144,1.347,1.347,0,0,1,.838.284,1.5,1.5,0,0,1,.457.7H436.8a2.558,2.558,0,0,0-.782-1.43,2.3,2.3,0,0,0-1.6-.582,2.405,2.405,0,0,0-2.129,1.22,1.887,1.887,0,0,0-.228.647,17.773,17.773,0,0,0,0,3.158,1.839,1.839,0,0,0,.094.364c.04.093.084.191.134.293a2.277,2.277,0,0,0,.792.829,2.418,2.418,0,0,0,3.759-2.021v-1.384h-2.413v.974h1.383v.354a1.42,1.42,0,0,1-.4,1.029,1.308,1.308,0,0,1-.991.41,1.394,1.394,0,0,1-1.053-.494,1.139,1.139,0,0,1-.266-.572,7.947,7.947,0,0,1-.075-1.356,8.12,8.12,0,0,1,.075-1.365A1.13,1.13,0,0,1,433.362,302.31Z" transform="translate(-410.36 -268.445)" fill="#f60"/>
        <path id="Path_203" data-name="Path 203" d="M445.055,300.849v6.791h4.337v-.974h-3.307v-5.817Z" transform="translate(-411.653 -268.451)" fill="#f60"/>
        <rect id="Rectangle_55" data-name="Rectangle 55" width="1.029" height="6.791" transform="translate(44.431 32.398)" fill="#f60"/>
        <path id="Path_204" data-name="Path 204" d="M466.378,300.849v6.791h1.03v-4.826h.018l3.069,4.826h.974v-6.791h-1.03v4.825h-.018l-3.074-4.825Z" transform="translate(-413.764 -268.451)" fill="#f60"/>
        <path id="Path_205" data-name="Path 205" d="M484.309,301.822v-.973h-4.336v6.791h4.336v-.974H481v-1.993h2.823v-.913H481v-1.938Z" transform="translate(-415.11 -268.451)" fill="#f60"/>
        <path id="Path_206" data-name="Path 206" d="M501.143,302.007a1.888,1.888,0,0,0-.228.647,17.773,17.773,0,0,0,0,3.158,1.91,1.91,0,0,0,.093.364c.041.093.086.191.135.293a2.277,2.277,0,0,0,.792.829,2.418,2.418,0,0,0,3.759-2.021v-1.384h-2.413v.974h1.383v.354a1.42,1.42,0,0,1-.4,1.029,1.312,1.312,0,0,1-.992.41,1.206,1.206,0,0,1-.624-.153,1.219,1.219,0,0,1-.429-.341,1.139,1.139,0,0,1-.266-.572,8.043,8.043,0,0,1-.075-1.356,8.218,8.218,0,0,1,.075-1.365,1.13,1.13,0,0,1,.266-.563,1.294,1.294,0,0,1,.429-.35,1.425,1.425,0,0,1,.624-.144,1.345,1.345,0,0,1,.838.284,1.492,1.492,0,0,1,.457.7h1.09a2.56,2.56,0,0,0-.784-1.43,2.293,2.293,0,0,0-1.6-.582,2.405,2.405,0,0,0-2.129,1.22Z" transform="translate(-417.177 -268.445)" fill="#f60"/>
        <path id="Path_207" data-name="Path 207" d="M513.951,302.007a1.869,1.869,0,0,0-.226.647,17.537,17.537,0,0,0,0,3.158,1.787,1.787,0,0,0,.092.364c.041.093.086.191.134.293a2.291,2.291,0,0,0,.792.829,2.391,2.391,0,0,0,1.338.392,2.422,2.422,0,0,0,1.35-.392,2.219,2.219,0,0,0,.774-.829,1.58,1.58,0,0,0,.238-.657,21,21,0,0,0,0-3.158,1.576,1.576,0,0,0-.238-.647,2.281,2.281,0,0,0-.774-.838,2.356,2.356,0,0,0-1.35-.382,2.325,2.325,0,0,0-1.338.382A2.355,2.355,0,0,0,513.951,302.007Zm.812.866a1.114,1.114,0,0,1,.266-.563,1.278,1.278,0,0,1,.427-.35,1.429,1.429,0,0,1,.625-.144,1.5,1.5,0,0,1,.637.144,1.433,1.433,0,0,1,.686.913,8.745,8.745,0,0,1,.069,1.365,8.559,8.559,0,0,1-.069,1.356,1.2,1.2,0,0,1-.276.572,1.135,1.135,0,0,1-.41.341,1.265,1.265,0,0,1-.637.153,1.385,1.385,0,0,1-1.052-.494,1.123,1.123,0,0,1-.266-.572,7.82,7.82,0,0,1-.076-1.356A7.99,7.99,0,0,1,514.763,302.873Z" transform="translate(-418.445 -268.445)" fill="#f60"/>
        <path id="Path_208" data-name="Path 208" d="M526.721,307.639h4.337v-.974H527.75v-1.993h2.823v-.913H527.75v-1.938h3.307v-.973h-4.337Z" transform="translate(-419.738 -268.451)" fill="#f60"/>
        <path id="Path_209" data-name="Path 209" d="M540.909,306.66a2.985,2.985,0,0,1-1.928-.675l-.676.773a3.854,3.854,0,0,0,2.6.932q2.333-.028,2.384-1.975a1.925,1.925,0,0,0-.452-1.267,2.113,2.113,0,0,0-1.411-.685c-.323-.041-.578-.077-.764-.107a1.315,1.315,0,0,1-.732-.335.752.752,0,0,1-.227-.532.882.882,0,0,1,.34-.736,1.285,1.285,0,0,1,.792-.237,3.117,3.117,0,0,1,1.681.522l.572-.849a3.811,3.811,0,0,0-2.2-.7,2.313,2.313,0,0,0-1.626.549,1.862,1.862,0,0,0-.591,1.435,1.8,1.8,0,0,0,.471,1.257,2.22,2.22,0,0,0,1.332.648c.326.047.626.088.9.126q.893.153.885.913Q542.231,306.642,540.909,306.66Z" transform="translate(-420.885 -268.445)" fill="#f60"/>
        <path id="Path_210" data-name="Path 210" d="M565.025,307.639v-6.791H564v2.911h-2.687v-2.911h-1.029v6.791h1.029v-2.967H564v2.967Z" transform="translate(-423.06 -268.451)" fill="#f60"/>
        <path id="Path_211" data-name="Path 211" d="M577.828,301.822v-.973h-4.337v6.791h4.337v-.974h-3.308v-1.993h2.823v-.913h-2.823v-1.938Z" transform="translate(-424.368 -268.451)" fill="#f60"/>
        <path id="Path_212" data-name="Path 212" d="M590.441,302.745a1.8,1.8,0,0,0-.675-1.449,2.085,2.085,0,0,0-1.384-.447h-2.651v6.79h1.03v-2.9h1.314l1.4,2.9H590.7l-1.575-3.013A1.889,1.889,0,0,0,590.441,302.745Zm-1.257.745a1.127,1.127,0,0,1-.867.335h-1.556v-2.059h1.612a1.177,1.177,0,0,1,.754.21.9.9,0,0,1,.34.769A1.048,1.048,0,0,1,589.184,303.49Z" transform="translate(-425.58 -268.451)" fill="#f60"/>
        <path id="Path_213" data-name="Path 213" d="M602.877,301.822v-.973h-4.336v6.791h4.336v-.974H599.57v-1.993h2.822v-.913H599.57v-1.938Z" transform="translate(-426.848 -268.451)" fill="#f60"/>
      </g>
    </g>
  </g>
</svg>
