<svg xmlns="http://www.w3.org/2000/svg" width="334.464" height="160" viewBox="0 0 334.464 160">
  <g id="Group_69" data-name="Group 69" transform="translate(-990.051 -4681)">
    <g id="Group_55" data-name="Group 55" transform="translate(1121.096 4738.271)">
      <path id="Path_348" data-name="Path 348" d="M827.761,261a2.167,2.167,0,0,0-.912-.987,3.624,3.624,0,0,0-1.746-.342h-2.012v9.188h1.86a3.957,3.957,0,0,0,1.823-.342,2.155,2.155,0,0,0,.949-.948,3.5,3.5,0,0,0,.36-1.405q.056-.834.057-1.86,0-.949-.039-1.8A3.918,3.918,0,0,0,827.761,261Z" transform="translate(-720.604 -255.795)" fill="none"/>
      <path id="Path_349" data-name="Path 349" d="M729.481,297.133h-.022l-1.135,3.429h2.293Z" transform="translate(-714.81 -258.086)" fill="none"/>
      <path id="Path_350" data-name="Path 350" d="M832.784,301.646a1.383,1.383,0,0,0,.495.392,1.4,1.4,0,0,0,.721.177,1.47,1.47,0,0,0,.738-.177,1.3,1.3,0,0,0,.473-.392,1.383,1.383,0,0,0,.317-.662,9.707,9.707,0,0,0,.081-1.567,9.912,9.912,0,0,0-.081-1.577,1.372,1.372,0,0,0-.317-.651,1.4,1.4,0,0,0-.473-.4,1.737,1.737,0,0,0-.738-.167,1.647,1.647,0,0,0-.721.167,1.484,1.484,0,0,0-.495.4,1.289,1.289,0,0,0-.307.651,9.383,9.383,0,0,0-.086,1.577,9.189,9.189,0,0,0,.086,1.567A1.3,1.3,0,0,0,832.784,301.646Z" transform="translate(-721.172 -258.054)" fill="none"/>
      <path id="Path_351" data-name="Path 351" d="M856.207,264.076l-1.9,9.8h3.873l-1.9-9.8Z" transform="translate(-722.512 -256.065)" fill="none"/>
      <path id="Path_352" data-name="Path 352" d="M753.407,279.41a2.739,2.739,0,0,0,1.841-.665,2.571,2.571,0,0,0,.778-2.068V262.4a2.573,2.573,0,0,0-.778-2.069,2.882,2.882,0,0,0-3.682,0,2.576,2.576,0,0,0-.778,2.069v14.275a2.574,2.574,0,0,0,.778,2.068A2.738,2.738,0,0,0,753.407,279.41Z" transform="translate(-716.183 -255.795)" fill="none"/>
      <path id="Path_353" data-name="Path 353" d="M915.119,298.54a1.214,1.214,0,0,0,.328-.861,1.042,1.042,0,0,0-.393-.888,1.362,1.362,0,0,0-.871-.242h-1.864v2.379h1.8A1.3,1.3,0,0,0,915.119,298.54Z" transform="translate(-726.059 -258.05)" fill="none"/>
      <path id="Path_354" data-name="Path 354" d="M716.118,281.664a5.3,5.3,0,0,0,2.05,1.063,8.688,8.688,0,0,0,2.239.3,5.732,5.732,0,0,0,2.412-.513,6.342,6.342,0,0,0,1.956-1.386,6.617,6.617,0,0,0,1.309-1.993,6.019,6.019,0,0,0,.475-2.373V275.1h-3.873v1.329a3.4,3.4,0,0,1-.227,1.328,2.305,2.305,0,0,1-.571.835,2.383,2.383,0,0,1-.816.437,2.789,2.789,0,0,1-.816.133,2.021,2.021,0,0,1-1.842-.8,3.586,3.586,0,0,1-.513-1.974v-13.82a4.768,4.768,0,0,1,.475-2.258,1.967,1.967,0,0,1,1.917-.893,2.093,2.093,0,0,1,1.747.836,3.135,3.135,0,0,1,.645,1.974v1.291h3.873V262a6.985,6.985,0,0,0-.475-2.6,6.4,6.4,0,0,0-1.309-2.069,5.878,5.878,0,0,0-4.444-1.785,6.686,6.686,0,0,0-2.561.475,6,6,0,0,0-1.993,1.31,5.8,5.8,0,0,0-1.291,1.974,6.555,6.555,0,0,0-.457,2.467v14.883a6.919,6.919,0,0,0,.589,3.056A5.906,5.906,0,0,0,716.118,281.664Z" transform="translate(-713.936 -255.543)" fill="#262e3a"/>
      <path id="Path_355" data-name="Path 355" d="M748.752,281.361a6.07,6.07,0,0,0,2.069,1.252,6.734,6.734,0,0,0,4.67,0,6.523,6.523,0,0,0,2.107-1.252,6.035,6.035,0,0,0,1.481-2.013,6.844,6.844,0,0,0,.569-2.923V262.15a6.913,6.913,0,0,0-.569-2.886,6.368,6.368,0,0,0-1.481-2.088,6.977,6.977,0,0,0-4.443-1.633,6.84,6.84,0,0,0-2.334.418,6.414,6.414,0,0,0-2.069,1.215,6.1,6.1,0,0,0-1.519,2.088,6.9,6.9,0,0,0-.57,2.886v14.275a6.83,6.83,0,0,0,.57,2.923A5.79,5.79,0,0,0,748.752,281.361Zm1.784-19.211a2.576,2.576,0,0,1,.778-2.069,2.882,2.882,0,0,1,3.682,0,2.573,2.573,0,0,1,.778,2.069v14.275a2.571,2.571,0,0,1-.778,2.068,2.882,2.882,0,0,1-3.682,0,2.574,2.574,0,0,1-.778-2.068Z" transform="translate(-715.931 -255.543)" fill="#262e3a"/>
      <path id="Path_356" data-name="Path 356" d="M789.077,270.1H789l-4.974-14.314h-3.721v27.032h3.872V266.379h.075l3.8,11.618h1.936l3.834-11.618h.076v16.439h3.873V255.786h-3.758Z" transform="translate(-717.988 -255.558)" fill="#262e3a"/>
      <path id="Path_357" data-name="Path 357" d="M829.786,257.684a5.4,5.4,0,0,0-2.2-1.481,8.634,8.634,0,0,0-2.81-.418h-5.808v27.032h3.872V272.263h1.974a7.163,7.163,0,0,0,3.493-.74,5.646,5.646,0,0,0,2.126-2.069,6.434,6.434,0,0,0,.893-2.355,19.245,19.245,0,0,0,.209-3.075,15.572,15.572,0,0,0-.38-3.853A5.8,5.8,0,0,0,829.786,257.684Zm-1.956,8.239a3.5,3.5,0,0,1-.36,1.405,2.154,2.154,0,0,1-.949.948,3.957,3.957,0,0,1-1.823.342h-1.86v-9.188h2.012a3.624,3.624,0,0,1,1.746.342,2.167,2.167,0,0,1,.912.987,3.917,3.917,0,0,1,.341,1.5q.038.855.039,1.8Q827.888,265.088,827.831,265.923Z" transform="translate(-720.351 -255.558)" fill="#262e3a"/>
      <path id="Path_358" data-name="Path 358" d="M854.28,255.786l-6.036,27.032h3.872l1.139-5.809h5.277l1.14,5.809h3.872l-6.037-27.032Zm-.342,17.578,1.9-9.8h.076l1.9,9.8Z" transform="translate(-722.141 -255.558)" fill="#262e3a"/>
      <path id="Path_359" data-name="Path 359" d="M882.575,282.817h3.872V266.568h.077l5.923,16.249h3.644V255.786h-3.873v16.288h-.075L886.3,255.786h-3.721Z" transform="translate(-724.24 -255.558)" fill="#262e3a"/>
      <path id="Path_360" data-name="Path 360" d="M920.362,282.817h3.872V271.39l5.316-15.6h-4.1l-3.114,10.745h-.075l-3.114-10.745h-4.1l5.315,15.6Z" transform="translate(-726.225 -255.558)" fill="#262e3a"/>
      <path id="Path_361" data-name="Path 361" d="M717.272,303.267V296.48h2.148v-1.06h-5.49v1.06h2.147v6.787Z" transform="translate(-713.93 -257.981)" fill="#262e3a"/>
      <path id="Path_362" data-name="Path 362" d="M727.234,303.267l.6-1.754h2.976l.608,1.754h1.254l-2.853-7.847h-1l-2.852,7.847Zm2.081-6.239h.023l1.136,3.43H728.18Z" transform="translate(-714.666 -257.981)" fill="#262e3a"/>
      <path id="Path_363" data-name="Path 363" d="M740.74,301.578c.046.108.1.221.156.339a2.623,2.623,0,0,0,.915.958,2.8,2.8,0,0,0,4.344-2.335v-1.6h-2.788v1.125h1.6v.409a1.646,1.646,0,0,1-.462,1.189,1.517,1.517,0,0,1-1.147.474,1.617,1.617,0,0,1-1.217-.57,1.307,1.307,0,0,1-.306-.662,9.06,9.06,0,0,1-.087-1.567,9.251,9.251,0,0,1,.087-1.577,1.3,1.3,0,0,1,.306-.651,1.5,1.5,0,0,1,.5-.4,1.643,1.643,0,0,1,.721-.167,1.555,1.555,0,0,1,.969.329,1.719,1.719,0,0,1,.528.807h1.259a2.95,2.95,0,0,0-.9-1.652,2.656,2.656,0,0,0-1.851-.673,2.778,2.778,0,0,0-2.46,1.41,2.167,2.167,0,0,0-.264.748,20.656,20.656,0,0,0,0,3.649A2.248,2.248,0,0,0,740.74,301.578Z" transform="translate(-715.557 -257.977)" fill="#262e3a"/>
      <path id="Path_364" data-name="Path 364" d="M755.043,295.42v7.847h5.011v-1.125h-3.821V295.42Z" transform="translate(-716.443 -257.981)" fill="#262e3a"/>
      <rect id="Rectangle_63" data-name="Rectangle 63" width="1.19" height="7.847" transform="translate(51.344 37.439)" fill="#262e3a"/>
      <path id="Path_365" data-name="Path 365" d="M778.69,295.42v7.847h1.189v-5.576h.021l3.548,5.576h1.124V295.42h-1.189V301h-.021l-3.553-5.575Z" transform="translate(-717.889 -257.981)" fill="#262e3a"/>
      <path id="Path_366" data-name="Path 366" d="M798.776,296.544V295.42h-5.011v7.847h5.011v-1.125h-3.821v-2.3h3.261v-1.055h-3.261v-2.239Z" transform="translate(-718.811 -257.981)" fill="#262e3a"/>
      <path id="Path_367" data-name="Path 367" d="M817.258,296.761a2.168,2.168,0,0,0-.263.748,20.441,20.441,0,0,0,0,3.649,2.118,2.118,0,0,0,.107.42c.047.108.1.221.156.339a2.632,2.632,0,0,0,.915.958,2.793,2.793,0,0,0,4.343-2.335v-1.6h-2.787v1.125h1.6v.409a1.643,1.643,0,0,1-.463,1.189,1.512,1.512,0,0,1-1.146.474,1.618,1.618,0,0,1-1.217-.57,1.325,1.325,0,0,1-.307-.662,9.319,9.319,0,0,1-.085-1.567,9.515,9.515,0,0,1,.085-1.577,1.312,1.312,0,0,1,.307-.651,1.5,1.5,0,0,1,.5-.4,1.647,1.647,0,0,1,.721-.167,1.553,1.553,0,0,1,.969.329,1.725,1.725,0,0,1,.528.807h1.26a2.968,2.968,0,0,0-.9-1.652,2.658,2.658,0,0,0-1.852-.673,2.688,2.688,0,0,0-1.544.441A2.717,2.717,0,0,0,817.258,296.761Z" transform="translate(-720.226 -257.977)" fill="#262e3a"/>
      <path id="Path_368" data-name="Path 368" d="M831.463,296.761a2.167,2.167,0,0,0-.263.748,20.411,20.411,0,0,0,0,3.649,2.184,2.184,0,0,0,.107.42c.047.108.1.221.156.339a2.625,2.625,0,0,0,.915.958,2.752,2.752,0,0,0,1.544.453,2.8,2.8,0,0,0,1.561-.453,2.551,2.551,0,0,0,.893-.958,1.815,1.815,0,0,0,.275-.759,24,24,0,0,0,0-3.649,1.8,1.8,0,0,0-.275-.748,2.633,2.633,0,0,0-.893-.969,2.738,2.738,0,0,0-1.561-.441,2.778,2.778,0,0,0-2.46,1.41Zm.937,1a1.289,1.289,0,0,1,.307-.651,1.483,1.483,0,0,1,.495-.4,1.646,1.646,0,0,1,.721-.167,1.738,1.738,0,0,1,.738.167,1.4,1.4,0,0,1,.473.4,1.371,1.371,0,0,1,.317.651,9.9,9.9,0,0,1,.081,1.577,9.7,9.7,0,0,1-.081,1.567,1.382,1.382,0,0,1-.317.662,1.3,1.3,0,0,1-.473.392,1.471,1.471,0,0,1-.738.177,1.4,1.4,0,0,1-.721-.177,1.382,1.382,0,0,1-.495-.392,1.3,1.3,0,0,1-.307-.662,9.2,9.2,0,0,1-.086-1.567A9.39,9.39,0,0,1,832.4,297.762Z" transform="translate(-721.094 -257.977)" fill="#262e3a"/>
      <path id="Path_369" data-name="Path 369" d="M845.609,303.267h5.012v-1.125H846.8v-2.3h3.262v-1.055H846.8v-2.239h3.821V295.42h-5.012Z" transform="translate(-721.98 -257.981)" fill="#262e3a"/>
      <path id="Path_370" data-name="Path 370" d="M861.465,302.138a3.449,3.449,0,0,1-2.229-.78l-.779.894a4.453,4.453,0,0,0,3,1.076q2.7-.032,2.755-2.281a2.228,2.228,0,0,0-.522-1.466,2.454,2.454,0,0,0-1.631-.79c-.373-.046-.668-.088-.883-.124a1.516,1.516,0,0,1-.846-.388.867.867,0,0,1-.264-.613,1.02,1.02,0,0,1,.393-.85,1.48,1.48,0,0,1,.916-.275,3.59,3.59,0,0,1,1.942.6l.663-.979a4.407,4.407,0,0,0-2.546-.813,2.67,2.67,0,0,0-1.879.635,2.151,2.151,0,0,0-.682,1.658,2.086,2.086,0,0,0,.543,1.453,2.566,2.566,0,0,0,1.539.748l1.039.146q1.034.177,1.023,1.055Q862.994,302.116,861.465,302.138Z" transform="translate(-722.766 -257.977)" fill="#262e3a"/>
      <path id="Path_371" data-name="Path 371" d="M882.825,295.42v7.847h1.189v-3.429h3.106v3.429h1.189V295.42h-1.189v3.364h-3.106V295.42Z" transform="translate(-724.255 -257.981)" fill="#262e3a"/>
      <path id="Path_372" data-name="Path 372" d="M902.488,302.142h-3.821v-2.3h3.262v-1.055h-3.262v-2.239h3.821V295.42h-5.011v7.847h5.011Z" transform="translate(-725.151 -257.981)" fill="#262e3a"/>
      <path id="Path_373" data-name="Path 373" d="M912.24,299.914h1.519l1.62,3.353h1.416l-1.82-3.482a2.184,2.184,0,0,0,1.518-2.174,2.092,2.092,0,0,0-.78-1.674,2.41,2.41,0,0,0-1.6-.516h-3.064v7.847h1.189Zm0-3.434H914.1a1.363,1.363,0,0,1,.871.242,1.042,1.042,0,0,1,.393.888,1.214,1.214,0,0,1-.328.861,1.3,1.3,0,0,1-1,.388h-1.8Z" transform="translate(-725.981 -257.981)" fill="#262e3a"/>
      <path id="Path_374" data-name="Path 374" d="M930.268,296.544V295.42h-5.011v7.847h5.011v-1.125h-3.821v-2.3h3.262v-1.055h-3.262v-2.239Z" transform="translate(-726.85 -257.981)" fill="#262e3a"/>
    </g>
    <path id="Path_376" data-name="Path 376" d="M884.641,56.29v50.774a32.431,32.431,0,0,0-20.815-13.718c-.347-.065-.7-.131-1.052-.178A43.328,43.328,0,0,1,884.641,56.29Z" transform="translate(225.218 4624.71)" fill="#262e3a"/>
    <g id="Group_56" data-name="Group 56" transform="translate(990.051 4681)">
      <path id="Path_375" data-name="Path 375" d="M851.759,147.9v26.278H785.41a26.515,26.515,0,0,1-5.069-.478c-.235-.048-.469-.1-.7-.15a26.989,26.989,0,0,1-21.182-26.308V56.29a43.345,43.345,0,0,1,21.886,37.582V136.91a15.406,15.406,0,0,0,15.4,15.4H840.99A15.346,15.346,0,0,0,851.759,147.9Z" transform="translate(-758.455 -56.29)" fill="#262e3a"/>
      <path id="Path_377" data-name="Path 377" d="M879.99,128.095v90.937a43.352,43.352,0,0,1-21.875-37.583V138.412a15.419,15.419,0,0,0-15.4-15.4H797.464a15.347,15.347,0,0,0-10.769,4.4V101.14h66.349a26.612,26.612,0,0,1,5.072.478A26.992,26.992,0,0,1,879.99,128.095Z" transform="translate(-760.182 -59.032)" fill="#f60"/>
      <path id="Path_378" data-name="Path 378" d="M780.331,186.523A43.318,43.318,0,0,1,758.455,223.4V172.609a32.567,32.567,0,0,0,7.793,8.066,32.211,32.211,0,0,0,12.177,5.491l.15.038.695.142C779.617,186.411,779.974,186.476,780.331,186.523Z" transform="translate(-758.455 -63.401)" fill="#f60"/>
    </g>
  </g>
</svg>
