<svg xmlns="http://www.w3.org/2000/svg" width="118.853" height="100" viewBox="0 0 118.853 100">
  <g id="fast-delivery" transform="translate(0 -34.892)">
    <g id="Group_27" data-name="Group 27" transform="translate(22.99 40.456)">
      <path id="Path_67" data-name="Path 67" d="M191.33,88.093a35.806,35.806,0,0,0-7.147-15.142,35.082,35.082,0,0,0-12.83-9.934,39.938,39.938,0,0,0-16.76-3.529c-11.534,0-23.262,4.418-33.024,12.441a54.4,54.4,0,0,0-18.914,30.1,42,42,0,0,0-.165,17.771,35.775,35.775,0,0,0,7.147,15.144,35.106,35.106,0,0,0,12.83,9.934,39.931,39.931,0,0,0,16.76,3.529c11.534,0,23.262-4.418,33.024-12.441a54.382,54.382,0,0,0,18.911-30.1,41.977,41.977,0,0,0,.167-17.773Zm-9.011,15.853c-4.235,19.527-23.567,35.411-43.092,35.411s-31.963-15.884-27.728-35.411,23.57-35.409,43.094-35.409S186.557,84.421,182.319,103.945Z" transform="translate(-101.619 -59.487)" fill="#a0c8ff"/>
    </g>
    <g id="Group_28" data-name="Group 28" transform="translate(17.686 34.892)">
      <ellipse id="Ellipse_8" data-name="Ellipse 8" cx="39.459" cy="31.776" rx="39.459" ry="31.776" transform="matrix(0.744, -0.668, 0.668, 0.744, 0, 52.717)" fill="#f9f5f3"/>
    </g>
    <g id="Group_29" data-name="Group 29" transform="translate(0 38.193)">
      <path id="Path_68" data-name="Path 68" d="M149.693,79.881A38.014,38.014,0,0,0,142.1,63.8l-.029-.035a2.262,2.262,0,0,0-3.535,2.824l.032.039a33.551,33.551,0,0,1,6.7,14.2,39.731,39.731,0,0,1-.165,16.819,52.126,52.126,0,0,1-18.137,28.831c-9.36,7.691-20.578,11.926-31.589,11.926a37.693,37.693,0,0,1-15.817-3.323,32.848,32.848,0,0,1-12.011-9.3,33.5,33.5,0,0,1-6.613-13.83h4.634a29,29,0,0,0,5.5,10.99c5.686,7.052,14.318,10.936,24.306,10.936.451,0,.9-.011,1.355-.026a2.273,2.273,0,0,0,.328.027,2.246,2.246,0,0,0,.538-.067,46.335,46.335,0,0,0,26.494-10.831,47.587,47.587,0,0,0,16.588-26.295l0-.012,0-.025c2.218-10.266.216-19.917-5.639-27.179-5.679-7.043-14.3-10.926-24.267-10.936h-.039c-9.966,0-20.164,3.87-28.716,10.9A47.589,47.589,0,0,0,65.44,95.727l0,.014,0,.02a36.576,36.576,0,0,0-.685,11.666H60.212a40.923,40.923,0,0,1,.807-12.66A52.126,52.126,0,0,1,79.155,65.936c9.36-7.691,20.578-11.926,31.588-11.926a38.593,38.593,0,0,1,12.7,2.076,2.262,2.262,0,0,0,1.486-4.274,43.11,43.11,0,0,0-14.189-2.327c-11.355,0-22.872,4.083-32.667,11.538H49.938a2.262,2.262,0,0,0,0,4.525H72.784A55.958,55.958,0,0,0,56.6,93.808a45.531,45.531,0,0,0-.926,13.619H47.211a2.262,2.262,0,0,0,0,4.525h9.1c.038.193.074.387.116.58a38.033,38.033,0,0,0,7.6,16.09,37.334,37.334,0,0,0,13.648,10.572,42.183,42.183,0,0,0,17.7,3.734c12.056,0,24.294-4.6,34.461-12.955a56.664,56.664,0,0,0,19.686-31.368,44.226,44.226,0,0,0,.167-18.724ZM69.523,98.469h2.545a2.262,2.262,0,0,0,0-4.525h-1.5A43.724,43.724,0,0,1,84.9,72.928a42.058,42.058,0,0,1,23.012-9.75l-.338,1.556a2.262,2.262,0,1,0,4.422.959l.56-2.582c7.815.431,14.5,3.658,18.97,9.2,4.652,5.77,6.426,13.4,5.072,21.633h-2.545a2.262,2.262,0,0,0,0,4.525h1.5a43.722,43.722,0,0,1-14.331,21.016,42.559,42.559,0,0,1-21.291,9.567l.3-1.373a2.262,2.262,0,1,0-4.422-.959l-.571,2.632c-8.531-.036-15.857-3.317-20.64-9.25a24.366,24.366,0,0,1-4.315-8.15h9.65a2.262,2.262,0,0,0,0-4.525H69.309a31.138,31.138,0,0,1,.214-8.958Z" transform="translate(-34.78 -49.485)"/>
      <path id="Path_69" data-name="Path 69" d="M254.225,186.381a2.254,2.254,0,0,0,1.435-.514l9.015-7.408a2.263,2.263,0,0,0,.775-1.268l4.539-20.921a2.262,2.262,0,1,0-4.422-.959L261.2,175.462l-8.408,6.908a2.263,2.263,0,0,0,1.438,4.011Z" transform="translate(-194.958 -129.989)"/>
      <path id="Path_70" data-name="Path 70" d="M2.262,191.122H17.708a2.262,2.262,0,0,0,0-4.525H2.262a2.262,2.262,0,0,0,0,4.525Z" transform="translate(0 -155.577)"/>
      <path id="Path_71" data-name="Path 71" d="M40.356,396.6H28.579a2.262,2.262,0,1,0,0,4.525H40.356a2.262,2.262,0,1,0,0-4.525Z" transform="translate(-20.363 -318.067)"/>
      <path id="Path_72" data-name="Path 72" d="M4.363,307.1a2.278,2.278,0,0,0-4.217.1,2.282,2.282,0,0,0,.737,2.546,2.283,2.283,0,0,0,2.564.151A2.282,2.282,0,0,0,4.363,307.1Z" transform="translate(-0.013 -247.763)"/>
      <path id="Path_73" data-name="Path 73" d="M425.6,83.14a2.261,2.261,0,1,0,1.224-2.955A2.283,2.283,0,0,0,425.6,83.14Z" transform="translate(-329.183 -73.109)"/>
    </g>
  </g>
</svg>
