<svg xmlns="http://www.w3.org/2000/svg" width="100.001" height="100" viewBox="0 0 100.001 100">
  <g id="plane" transform="translate(0 -0.501)">
    <path id="Path_104" data-name="Path 104" d="M413.08,217.066a3.907,3.907,0,0,1,0,5.525l-9.943,9.943-1.547-9.5,5.967-5.967a3.9,3.9,0,0,1,5.523,0Zm0,0" transform="translate(-323.154 -173.346)" fill="#fafaff"/>
    <path id="Path_105" data-name="Path 105" d="M226.988,47.367a3.905,3.905,0,0,1,0,5.523l-5.967,5.967-9.5-1.546,9.943-9.943a3.907,3.907,0,0,1,5.525,0Zm0,0" transform="translate(-170.207 -36.791)" fill="#fafaff"/>
    <g id="Group_31" data-name="Group 31" transform="translate(1.953 15.039)">
      <path id="Path_106" data-name="Path 106" d="M73.582,83.9,49.5,107.981,15.45,83.327a4.637,4.637,0,0,1,3.465-8.332Zm0,0" transform="translate(-12.843 -74.935)" fill="#e87288"/>
      <path id="Path_107" data-name="Path 107" d="M31.808,310.522l.2.105a130.367,130.367,0,0,0-6.459,12.31l-.193-.089-13.475-9.329a4.36,4.36,0,0,1,3.711-7.768Zm0,0" transform="translate(-9.999 -260.528)" fill="#e87288"/>
      <path id="Path_108" data-name="Path 108" d="M135.214,406.724a4.36,4.36,0,0,1-7.768,3.711l-9.329-13.475-.09-.193a132.015,132.015,0,0,0,11.99-6.266l.426,0Zm0,0" transform="translate(-96.928 -328.866)" fill="#e87288"/>
      <path id="Path_109" data-name="Path 109" d="M301.354,246.186a4.637,4.637,0,0,1-8.332,3.465l-24.654-34.046,24.086-24.086Zm0,0" transform="translate(-217.905 -168.749)" fill="#e87288"/>
    </g>
    <path id="Path_110" data-name="Path 110" d="M151.407,12.134c-3.219-3.217-10.325-1.517-17.05,3.672-2.657,2.056.241-.674-48.407,47.973a50.669,50.669,0,0,0-7,9.406A157.642,157.642,0,0,0,68.34,95.2a158.526,158.526,0,0,0,21.7-10.418,51.547,51.547,0,0,0,9.727-7.193c48.411-48.412,45.852-45.667,47.973-48.407,5.19-6.725,6.889-13.831,3.672-17.05Zm0,0" transform="translate(-54.993 -8.047)" fill="#fafaff"/>
    <path id="Path_111" data-name="Path 111" d="M238.859,254.781a1.953,1.953,0,1,0,2.762,0A1.951,1.951,0,0,0,238.859,254.781Zm0,0" transform="translate(-191.746 -204.155)"/>
    <path id="Path_112" data-name="Path 112" d="M78.17,6.215c-3.352,2.595-4.265,3.932-16.152,15.7l-7.126-1.16,3.27-3.27a5.86,5.86,0,0,0-8.287-8.286L40.639,18.43l-32.3-5.259A6.59,6.59,0,0,0,3.415,25.013L35.6,48.324l-6.027,6.027A49.009,49.009,0,0,0,23.1,62.8L8.093,58.39A6.313,6.313,0,0,0,2.72,69.637l12.306,8.519c-2.142,4.728-3.445,8.147-3.5,8.3A1.953,1.953,0,0,0,14.04,88.98c.158-.06,3.577-1.363,8.3-3.5l8.52,12.307a6.313,6.313,0,0,0,11.247-5.374L37.7,77.4a49.042,49.042,0,0,0,8.453-6.473L52.178,64.9l23.31,32.19A6.591,6.591,0,0,0,87.33,92.162l-5.259-32.3,9.235-9.235a5.86,5.86,0,1,0-8.286-8.288L79.75,45.61l-1.16-7.126c11.776-11.9,13.092-12.791,15.688-16.142l.01-.013c6.024-7.807,7.434-15.692,3.506-19.622S85.98.188,78.17,6.215ZM52.637,11.957A1.953,1.953,0,0,1,55.4,14.718l-5.26,5.259L45.39,19.2ZM5.7,21.848a2.684,2.684,0,0,1,2.006-4.822l50.9,8.288L38.4,45.526ZM4.61,62.745a2.407,2.407,0,0,1,2.381-.608l14.04,4.129c-1.436,2.515-2.885,5.293-4.33,8.3L4.944,66.426a2.407,2.407,0,0,1-.333-3.68ZM37.757,95.891a2.408,2.408,0,0,1-3.681-.333L25.936,83.8c3.009-1.447,5.788-2.9,8.3-4.329l4.128,14.04a2.407,2.407,0,0,1-.607,2.381ZM85.784,45.1a1.953,1.953,0,0,1,2.761,2.763L81.3,55.111l-.773-4.751ZM83.474,92.788A2.684,2.684,0,0,1,78.653,94.8L54.975,62.1,75.187,41.887ZM43.389,68.161a49.188,49.188,0,0,1-9.349,6.9A144.721,144.721,0,0,1,16.906,83.6,142.868,142.868,0,0,1,25.63,66.149a48.353,48.353,0,0,1,6.71-9.036c47.71-47.6,44.883-45.14,47.779-47.456a10.142,10.142,0,0,1,8.008,2.717,10.144,10.144,0,0,1,2.718,8.008c-2.321,2.9.105.1-47.456,47.779Zm50.8-52.912a12.89,12.89,0,0,0-8.934-8.935c2.827-1.434,7.587-3.039,9.78-.847,1.732,1.733,1.3,5.547-.846,9.782Zm0,0" transform="translate(0)"/>
    <path id="Path_113" data-name="Path 113" d="M272.674,198.212l-5.524,5.523a1.953,1.953,0,1,0,2.763,2.763l5.523-5.524a1.953,1.953,0,0,0-2.762-2.762Zm0,0" transform="translate(-214.512 -158.635)"/>
    <path id="Path_114" data-name="Path 114" d="M329.237,141.643l-5.526,5.525a1.953,1.953,0,1,0,2.763,2.763L332,144.405a1.953,1.953,0,0,0-2.762-2.763Zm0,0" transform="translate(-260.026 -113.114)"/>
  </g>
</svg>
