<svg xmlns="http://www.w3.org/2000/svg" width="82.031" height="100" viewBox="0 0 82.031 100">
  <g id="shield" transform="translate(-46)">
    <path id="Path_8" data-name="Path 8" d="M134.125,21.719V53.592a54.812,54.812,0,0,1-39.062,52.5A54.809,54.809,0,0,1,56,53.592V21.719A11.718,11.718,0,0,0,67.719,10h54.688A11.718,11.718,0,0,0,134.125,21.719Z" transform="translate(-8.047 -8.047)" fill="#00dd80"/>
    <path id="Path_9" data-name="Path 9" d="M148.412,50H106.088A19.638,19.638,0,0,1,96,60.088V85.779a46.689,46.689,0,0,0,31.25,44.285A46.689,46.689,0,0,0,158.5,85.779V60.088A19.638,19.638,0,0,1,148.412,50Z" transform="translate(-40.234 -40.234)" fill="#00aa63"/>
    <path id="Path_10" data-name="Path 10" d="M191.625,156A15.625,15.625,0,1,1,176,171.625,15.643,15.643,0,0,1,191.625,156Z" transform="translate(-104.609 -125.531)" fill="#e6efff"/>
    <path id="Path_11" data-name="Path 11" d="M247.766,43.9a1.951,1.951,0,1,0-1.756-1.941A1.947,1.947,0,0,0,247.766,43.9Z" transform="translate(-160.946 -32.196)"/>
    <path id="Path_12" data-name="Path 12" d="M126.078,11.719a9.777,9.777,0,0,1-9.766-9.766A1.953,1.953,0,0,0,114.359,0H59.672a1.953,1.953,0,0,0-1.953,1.953,9.777,9.777,0,0,1-9.766,9.766A1.953,1.953,0,0,0,46,13.672V45.545A56.732,56.732,0,0,0,86.455,99.918a1.953,1.953,0,0,0,1.122,0,56.738,56.738,0,0,0,40.454-54.373V13.672A1.953,1.953,0,0,0,126.078,11.719Zm-1.953,33.826A52.526,52.526,0,0,1,87.016,96a52.811,52.811,0,0,1-37.109-50.46V15.486a13.7,13.7,0,0,0,11.58-11.58h51.059a13.7,13.7,0,0,0,11.58,11.58Z" transform="translate(0)"/>
    <path id="Path_13" data-name="Path 13" d="M142.154,41.17A1.953,1.953,0,0,0,140.365,40H127.012a1.953,1.953,0,0,0,0,3.906H139.13a21.471,21.471,0,0,0,9.37,9.37V77.732a44.492,44.492,0,0,1-29.3,42.208,44.492,44.492,0,0,1-29.3-42.208V53.276a21.472,21.472,0,0,0,9.37-9.37h12.119a1.953,1.953,0,0,0,0-3.906H98.041a1.953,1.953,0,0,0-1.789,1.17,17.594,17.594,0,0,1-9.082,9.082A1.954,1.954,0,0,0,86,52.041V77.732a48.621,48.621,0,0,0,32.552,46.126,1.953,1.953,0,0,0,1.3,0,48.621,48.621,0,0,0,32.552-46.126V52.041a1.953,1.953,0,0,0-1.17-1.789A17.593,17.593,0,0,1,142.154,41.17Z" transform="translate(-32.188 -32.188)"/>
    <path id="Path_14" data-name="Path 14" d="M166,163.578A17.578,17.578,0,1,0,183.578,146,17.6,17.6,0,0,0,166,163.578Zm31.25,0a13.672,13.672,0,1,1-13.672-13.672A13.687,13.687,0,0,1,197.25,163.578Z" transform="translate(-96.563 -117.484)"/>
    <path id="Path_15" data-name="Path 15" d="M219.334,212.431a1.953,1.953,0,1,0-2.762,2.762l3.906,3.906a1.954,1.954,0,0,0,2.762,0l9.766-9.766a1.953,1.953,0,0,0-2.762-2.762l-8.384,8.385Z" transform="translate(-136.796 -165.766)"/>
  </g>
</svg>
