<svg xmlns="http://www.w3.org/2000/svg" width="107.142" height="100" viewBox="0 0 107.142 100">
  <g id="ship" transform="translate(-5.567 -8.696)">
    <path id="Path_98" data-name="Path 98" d="M136.871,259.542l.358.119-11.786,35.359c-6-.93-7.024-4.525-14.786-4.525-8.929,0-8.929,4.762-17.857,4.762s-8.929-4.762-17.857-4.762c-7.738,0-8.762,3.595-14.739,4.525L48.419,259.661l.357-.119L92.823,239.3Z" transform="translate(-33.685 -188.942)" fill="#f1f2f2"/>
    <path id="Path_99" data-name="Path 99" d="M303.619,210.646l-3.213,9.642-.358-.118L256,199.931V189.217L289.07,204.1Z" transform="translate(-196.862 -149.569)" fill="#939598"/>
    <path id="Path_100" data-name="Path 100" d="M110.888,122.435h51.19a4.776,4.776,0,0,1,4.762,4.762v23.809l-.263.6-33.07-14.881L100.436,151.6l-.262-.6V127.2a4.776,4.776,0,0,1,4.762-4.762Z" transform="translate(-74.369 -97.073)" fill="#ffd248"/>
    <path id="Path_101" data-name="Path 101" d="M81.01,189.217v10.714L36.963,220.169l-.357.118-3.215-9.642L47.938,204.1Z" transform="translate(-21.872 -149.569)" fill="#939598"/>
    <path id="Path_102" data-name="Path 102" d="M195.5,69.938H150.261V55.652H195.5Z" transform="translate(-113.742 -44.575)" fill="#31c0d8"/>
    <g id="Group_30" data-name="Group 30" transform="translate(5.567 8.696)">
      <rect id="Rectangle_44" data-name="Rectangle 44" width="52.381" height="4.762" transform="translate(27.381 22.619)" fill="#231f20"/>
      <rect id="Rectangle_45" data-name="Rectangle 45" width="4.762" height="4.762" transform="translate(75 29.762)" fill="#231f20"/>
      <rect id="Rectangle_46" data-name="Rectangle 46" width="4.762" height="4.762" transform="translate(27.381 29.762)" fill="#231f20"/>
      <rect id="Rectangle_47" data-name="Rectangle 47" width="4.762" height="4.762" transform="translate(51.19 7.143)" fill="#231f20"/>
      <rect id="Rectangle_48" data-name="Rectangle 48" width="4.762" height="4.762" transform="translate(58.333 7.143)" fill="#231f20"/>
      <rect id="Rectangle_49" data-name="Rectangle 49" width="4.762" height="4.762" transform="translate(44.047 7.143)" fill="#231f20"/>
      <rect id="Rectangle_50" data-name="Rectangle 50" width="4.762" height="4.762" transform="translate(36.904 7.143)" fill="#231f20"/>
      <rect id="Rectangle_51" data-name="Rectangle 51" width="4.762" height="4.762" transform="translate(65.476 7.143)" fill="#231f20"/>
      <path id="Path_103" data-name="Path 103" d="M102.661,101.833a14.155,14.155,0,0,1-7.678,2.1l14.033-42.1a2.381,2.381,0,0,0-1.282-2.924l-12.882-5.8V30.124a7.151,7.151,0,0,0-7.143-7.143H84.138v-11.9A2.381,2.381,0,0,0,81.757,8.7H36.519a2.381,2.381,0,0,0-2.381,2.381v11.9H30.567a7.151,7.151,0,0,0-7.143,7.143V53.107l-12.882,5.8A2.381,2.381,0,0,0,9.26,61.829l14.033,42.1a14.156,14.156,0,0,1-7.678-2.1A18.789,18.789,0,0,0,5.567,99.172v4.762a14.167,14.167,0,0,1,7.808,2.1A18.786,18.786,0,0,0,23.424,108.7a19.744,19.744,0,0,0,3.492-.27,19.3,19.3,0,0,0,6.557-2.4,14.145,14.145,0,0,1,7.786-2.1,14.167,14.167,0,0,1,7.808,2.1A18.789,18.789,0,0,0,59.115,108.7a18.789,18.789,0,0,0,10.049-2.661,15.584,15.584,0,0,1,15.62-.006,19.4,19.4,0,0,0,6.578,2.4,19.71,19.71,0,0,0,3.491.27,18.789,18.789,0,0,0,10.049-2.661,14.169,14.169,0,0,1,7.808-2.1V99.172A18.786,18.786,0,0,0,102.661,101.833Zm-.55-34.346L61.519,48.836V43.33l42.3,19.034ZM38.9,13.458H79.376v9.524H38.9ZM30.567,27.743H87.709a2.384,2.384,0,0,1,2.381,2.381V50.965L60.115,37.477a2.379,2.379,0,0,0-1.954,0L28.185,50.964V30.124A2.384,2.384,0,0,1,30.567,27.743ZM56.757,43.33v5.506L16.165,67.486l-1.707-5.122ZM76.972,99.172a18.789,18.789,0,0,0-10.049,2.661,14.17,14.17,0,0,1-7.808,2.1,14.167,14.167,0,0,1-7.808-2.1,18.788,18.788,0,0,0-10.049-2.661,18.762,18.762,0,0,0-10.025,2.654,19.259,19.259,0,0,1-3.142,1.437L17.68,72.031,56.757,54.077V82.505h4.762V54.077L100.6,72.031,90.185,103.267a19.317,19.317,0,0,1-3.167-1.443A18.838,18.838,0,0,0,76.972,99.172Z" transform="translate(-5.567 -8.696)" fill="#231f20"/>
    </g>
  </g>
</svg>
